<?xml version="1.0" encoding="utf-8"?>
<!-- Generator: Adobe Illustrator 17.0.0, SVG Export Plug-In . SVG Version: 6.00 Build 0)  -->
<!DOCTYPE svg PUBLIC "-//W3C//DTD SVG 1.1//EN" "http://www.w3.org/Graphics/SVG/1.1/DTD/svg11.dtd">
<svg version="1.1" id="Layer_1" xmlns="http://www.w3.org/2000/svg" xmlns:xlink="http://www.w3.org/1999/xlink" x="0px" y="0px"
	 width="50.2px" height="40.2px" viewBox="0 0 50.2 40.2" style="enable-background:new 0 0 50.2 40.2;" xml:space="preserve">
<style type="text/css">
	.st0{fill:#FFFFFF;}
</style>
<g>
	<path class="st0" d="M31.7,25.2v-5.4H18.6c0,0.8,0.1,4.6,0,5.4c-1.5,1.2-1.3,0.9-3.5,2.6c-4.4,3.4-9.4,5.4-15.1,6
		c-0.3-8.3,6.1-21.1,21.1-24.9c-1.4-2.8-2-5.7,1-7.9c2-1.5,4.1-1.3,6.1,0.2c2.2,1.7,2.4,3.7,0.8,7.7c12.4,3.6,19.9,11.5,21.3,25
		C43.7,33.1,38,31,33.4,26.6C32.9,26,32.3,25.6,31.7,25.2L31.7,25.2z"/>
	<path class="st0" d="M31.7,25.2c-1,5-1,5-6.2,4.6c-0.6,0-1.2,0-1.8,0c-4.2,0.2-4.2,0.2-5.1-4.6C23,24.6,27.3,24.5,31.7,25.2
		C31.7,25.2,31.7,25.2,31.7,25.2"/>
	<path class="st0" d="M28.4,35.2c-1.2,1.8-2.1,3.2-3.3,5c-1.3-1.7-2.3-3.1-3.6-5L28.4,35.2z"/>
</g>
<g>
</g>
<g>
</g>
<g>
</g>
<g>
</g>
<g>
</g>
<g>
</g>
</svg>
