<?xml version="1.0" encoding="utf-8"?>
<!-- Generator: Adobe Illustrator 17.0.0, SVG Export Plug-In . SVG Version: 6.00 Build 0)  -->
<!DOCTYPE svg PUBLIC "-//W3C//DTD SVG 1.1//EN" "http://www.w3.org/Graphics/SVG/1.1/DTD/svg11.dtd">
<svg version="1.1" id="Layer_1" xmlns="http://www.w3.org/2000/svg" xmlns:xlink="http://www.w3.org/1999/xlink" x="0px" y="0px"
	 width="52px" height="52px" viewBox="0 0 52 52" style="enable-background:new 0 0 52 52;" xml:space="preserve">
<style type="text/css">
	.st0{fill:#FFFFFF;}
</style>
<g>
	<path class="st0" d="M39.6,0c-3.8,0-5.9,1.5-6.1,1.7c-0.1,0.1-0.1,0.1-0.2,0.2l-28,28.4C1.5,32.8,0,37,0,40c0,6.8,5.2,12,12,12
		c6.9,0,10-4.7,10-9.4c0-5.2-3.5-8.6-8.7-8.6C9.1,34,6,36.8,6,40.7c0,2.5,2.1,5.3,5.3,5.3c3.2,0,4.7-2.4,4.7-4c0-1.1-0.9-2-2-2
		c-1,0-1.9,0.8-2,1.8c-0.1,0.1-0.3,0.2-0.8,0.2c-0.8,0-1.3-0.9-1.3-1.3c0-2,1.7-2.7,3.3-2.7c1.7,0,4.7,0.6,4.7,4.6
		c0,1.6-0.6,5.4-6,5.4c-4.6,0-8-3.4-8-8c0-1.4,0.7-4.4,3.3-6.3c0.2-0.1,0.4-0.2,0.5-0.4c1.4-0.8,3.2-1.4,5.6-1.4c3.4,0,5.9,1,7.7,3
		c3.9,4.5,2.8,12.6,2.8,12.7c-0.1,0.9,0.4,1.8,1.2,2.1c0.9,0.3,1.8,0,2.4-0.7l24-34c0.2-0.3,0.4-0.7,0.4-1.2C52,2.4,45.3,0,39.6,0z
		 M29.3,10.6c8.5-1.1,13.8,6.1,13.5,11.4l-5.4,7.6c-2.3-6.3-7.8-11.2-15.2-12L29.3,10.6z M29.9,41.7c-0.4-3.4-1.5-7.4-4.2-10.6
		c-2.9-3.3-7-5-12.2-5c-0.1,0-0.2,0-0.3,0l5-5.1c11-0.6,16.4,8.1,16.5,13.8L29.9,41.7z M45.6,17.2c-1.9-5.5-6.7-9.3-12.8-10.3
		l2.1-2.1c0.4-0.2,1.7-0.9,3.9-0.9c6.1,0,8.9,3,9,10.1L45.6,17.2z"/>
</g>
<g>
</g>
<g>
</g>
<g>
</g>
<g>
</g>
<g>
</g>
<g>
</g>
</svg>
