<?xml version="1.0" encoding="utf-8"?>
<!-- Generator: Adobe Illustrator 17.0.0, SVG Export Plug-In . SVG Version: 6.00 Build 0)  -->
<!DOCTYPE svg PUBLIC "-//W3C//DTD SVG 1.1//EN" "http://www.w3.org/Graphics/SVG/1.1/DTD/svg11.dtd">
<svg version="1.1" id="Layer_1" xmlns="http://www.w3.org/2000/svg" xmlns:xlink="http://www.w3.org/1999/xlink" x="0px" y="0px"
	 width="59.3px" height="52px" viewBox="0 0 59.3 52" style="enable-background:new 0 0 59.3 52;" xml:space="preserve">
<style type="text/css">
	.st0{fill:#FFFFFF;}
</style>
<g>
	<g>
		<g>
			<path class="st0" d="M53.8,0H5.5C2.5,0,0,2.5,0,5.5v41c0,3,2.5,5.5,5.5,5.5h48.3c3,0,5.5-2.5,5.5-5.5v-41C59.3,2.5,56.8,0,53.8,0
				z M53.8,46.5H24.9c-0.6-1.5-2-2.7-3.8-2.7H12c-1.7,0-3.2,1.1-3.8,2.7H5.5l0-41l48.3,0L53.8,46.5C53.8,46.5,53.8,46.5,53.8,46.5z"
				/>
			<path class="st0" d="M18.6,31.4c-0.1-0.6-0.6-1.1-1.3-1l-2.9,0.3l1.4-2c1-1.4,1.6-2.7,1.4-3.8c-0.2-1.9-1.8-3.1-4-2.8
				c-1.3,0.1-2.5,0.8-3.3,1.9c-0.4,0.5-0.3,1.2,0.2,1.6l0.2,0.2c0.2,0.2,0.6,0.3,0.9,0.2c0.3,0,0.6-0.2,0.8-0.4
				c0.4-0.5,1-0.8,1.5-0.9c1.1-0.1,1.1,0.4,1.2,0.5c0,0.3-0.2,1-0.9,2c0,0,0,0,0,0l-3,4.2c-0.2,0.2-0.2,0.5-0.2,0.8l0,0.4
				c0.1,0.6,0.6,1.1,1.3,1l5.8-0.6c0.6-0.1,1.1-0.6,1-1.3L18.6,31.4z"/>
			<path class="st0" d="M26,26.6c-0.1-0.6-0.6-1.1-1.3-1l-1.3,0.1l-0.1-1.3c-0.1-0.6-0.6-1.1-1.3-1l-0.3,0c-0.6,0.1-1.1,0.6-1,1.3
				l0.1,1.3l-1.3,0.1c-0.6,0.1-1.1,0.6-1,1.3l0,0.3c0.1,0.6,0.6,1.1,1.3,1l1.3-0.1l0.1,1.3c0.1,0.6,0.6,1.1,1.3,1l0.3,0
				c0.6-0.1,1.1-0.6,1-1.3l-0.1-1.3l1.3-0.1c0.6-0.1,1.1-0.6,1-1.3L26,26.6z"/>
			<path class="st0" d="M34.8,29.6c-0.1-0.6-0.6-1.1-1.3-1l-2.9,0.3l1.4-2c1-1.4,1.6-2.7,1.4-3.8c-0.2-1.9-1.8-3.1-4-2.8
				c-1.3,0.1-2.5,0.8-3.3,1.9c-0.4,0.5-0.3,1.2,0.2,1.6l0.2,0.2c0.2,0.2,0.6,0.3,0.9,0.2c0.3,0,0.6-0.2,0.8-0.4
				c0.4-0.5,1-0.8,1.5-0.9c1.1-0.1,1.1,0.4,1.2,0.5c0,0.3-0.2,1-0.9,2c0,0,0,0,0,0l-3,4.2c-0.2,0.2-0.2,0.5-0.2,0.8l0,0.4
				c0.1,0.6,0.6,1.1,1.3,1l5.8-0.6c0.6-0.1,1.1-0.6,1-1.3L34.8,29.6z"/>
			<path class="st0" d="M42.5,26.6c-0.1-0.6-0.7-1.1-1.3-1l-5.1,0.6c-0.6,0.1-1.1,0.6-1,1.3l0,0.3c0.1,0.6,0.6,1.1,1.3,1l5.1-0.6
				c0.6-0.1,1.1-0.6,1-1.3L42.5,26.6z"/>
			<path class="st0" d="M36,25l5.1-0.6c0.6-0.1,1.1-0.6,1-1.3l0-0.3c-0.1-0.6-0.7-1.1-1.3-1l-5.1,0.6c-0.6,0.1-1.1,0.6-1,1.3l0,0.3
				C34.7,24.6,35.3,25.1,36,25z"/>
			<path class="st0" d="M46.9,27.1c-0.8,0.1-1.4,0.8-1.3,1.7c0.1,0.8,0.8,1.4,1.7,1.3c0.8-0.1,1.4-0.8,1.3-1.7
				C48.4,27.6,47.7,27,46.9,27.1z"/>
			<path class="st0" d="M46,18.4c-1.9,0.2-3.1,1.5-3.1,3.3c0,0.6,0.5,1.1,1.2,1.1l0.3,0c0.3,0,0.6-0.1,0.8-0.4
				c0.2-0.2,0.3-0.5,0.3-0.9c0-0.2,0-0.5,0.7-0.6c0.8-0.1,0.8,0.2,0.9,0.4c0.1,0.5-0.1,0.7-0.5,1.2c-0.5,0.6-1.3,1.5-1.1,3.1
				c0.1,0.6,0.6,1.1,1.3,1l0.3,0c0.6-0.1,1.1-0.6,1-1.3c-0.1-0.5,0.1-0.7,0.5-1.2c0.5-0.6,1.3-1.5,1.1-3.1
				C49.5,19.3,48,18.2,46,18.4z"/>
		</g>
	</g>
</g>
<g>
</g>
<g>
</g>
<g>
</g>
<g>
</g>
<g>
</g>
<g>
</g>
</svg>
