<?xml version="1.0" encoding="utf-8"?>
<!-- Generator: Adobe Illustrator 17.0.0, SVG Export Plug-In . SVG Version: 6.00 Build 0)  -->
<!DOCTYPE svg PUBLIC "-//W3C//DTD SVG 1.1//EN" "http://www.w3.org/Graphics/SVG/1.1/DTD/svg11.dtd">
<svg version="1.1" id="Layer_1" xmlns="http://www.w3.org/2000/svg" xmlns:xlink="http://www.w3.org/1999/xlink" x="0px" y="0px"
	 width="34.9px" height="52px" viewBox="0 0 34.9 52" style="enable-background:new 0 0 34.9 52;" xml:space="preserve">
<style type="text/css">
	.st0{fill:#FFFFFF;}
</style>
<g>
	<path class="st0" d="M0,27.9c0-6.7,0-13.5,0-20.2c0-0.5,0.1-0.9,0.5-1.2c0.7-0.7,1.4-1.4,2.2-2.1C2.9,4.2,3.3,4,3.7,4
		c4.8,0,9.6,0,14.4,0c0.4,0,0.8,0.2,1.1,0.4c5.1,5.1,10.2,10.2,15.3,15.3c0.2,0.2,0.4,0.6,0.4,1c0,9.2,0,18.5,0,27.7
		c0,0.3-0.2,0.7-0.4,1c-0.7,0.8-1.5,1.6-2.3,2.3c-0.2,0.2-0.6,0.4-0.9,0.4c-9.2,0-18.4,0-27.6,0c-0.3,0-0.7-0.2-0.9-0.4
		c-0.8-0.7-1.6-1.5-2.3-2.3C0.2,49,0,48.7,0,48.4C0,42,0,35.7,0,29.3C0,28.8,0,28.4,0,27.9C0,27.9,0,27.9,0,27.9z M15,22.1
		c-0.6,2.4-1.8,4.5-2.8,6.6c-0.6,1.2-1.2,2.4-1.6,3.7c-0.7,2.3,0.5,4.4,2.7,5.1c0.7,0.2,1.4,0.3,2.1,0.3c2.7-0.1,4.5-2.4,4-5
		c-0.2-1.1-0.7-2.3-1.2-3.3C17.1,27.1,15.6,24.8,15,22.1z M17.5,7.5c-0.1,0-0.1,0.1-0.2,0.1c0,1.7,0,3.4,0,5.1c0,0.3,0.2,0.8,0.4,1
		c3.7,3.8,7.5,7.5,11.2,11.3c0.8,0.8,1.5,1.6,2.2,2.4c0.1-0.1,0.1-0.1,0.2-0.2c0-0.2,0-0.4,0-0.7c0-1.5,0-2.9,0-4.4
		c0-0.5-0.1-0.8-0.5-1.2c-2.9-2.9-5.9-5.8-8.8-8.8C20.6,10.7,19.1,9.1,17.5,7.5z"/>
	<path class="st0" d="M11.7,0c0,1,0,2,0,3C9.5,3,7.3,3,5.1,3c0-1,0-2,0-3C7.3,0,9.4,0,11.7,0z"/>
</g>
<g>
</g>
<g>
</g>
<g>
</g>
<g>
</g>
<g>
</g>
<g>
</g>
</svg>
