<?xml version="1.0" encoding="utf-8"?>
<!-- Generator: Adobe Illustrator 17.0.0, SVG Export Plug-In . SVG Version: 6.00 Build 0)  -->
<!DOCTYPE svg PUBLIC "-//W3C//DTD SVG 1.1//EN" "http://www.w3.org/Graphics/SVG/1.1/DTD/svg11.dtd">
<svg version="1.1" id="Layer_1" xmlns="http://www.w3.org/2000/svg" xmlns:xlink="http://www.w3.org/1999/xlink" x="0px" y="0px"
	 width="57.2px" height="52px" viewBox="0 0 57.2 52" style="enable-background:new 0 0 57.2 52;" xml:space="preserve">
<style type="text/css">
	.st0{fill:#FFFFFF;}
</style>
<g>
	<g>
		<circle class="st0" cx="14.3" cy="46.9" r="5.1"/>
	</g>
	<g>
		<circle class="st0" cx="45.1" cy="46.9" r="5.1"/>
	</g>
	<g>
		<path class="st0" d="M32.6,8.4c0-0.7,0-3.6,0-4.4c0-2.2-1.8-4-4-4s-4,1.8-4,4c0,0.8,0,3.7,0,4.4H32.6z"/>
	</g>
	<path class="st0" d="M55.5,30.4L41.8,12.8c-1-1.2-1.7-2.2-3.3-2.2H2.2c-1.2,0-2.2,1-2.2,2.2v30.8c0,1.2,1,2.2,2.2,2.2h4.4
		c0.5-3.8,3.8-6.7,7.7-6.7s7.2,2.9,7.7,6.7h15.4c0.5-3.8,3.7-6.7,7.7-6.7s7.1,2.9,7.7,6.7H55c1.2,0,2.2-1,2.2-2.2c0,0,0-6.7,0-8.8
		C57.2,32.7,55.5,30.4,55.5,30.4z M17.6,33.1c-5.1,0-9.3-4.2-9.3-9.3s4.2-9.3,9.3-9.3s9.3,4.2,9.3,9.3S22.7,33.1,17.6,33.1z
		 M35.2,30.4V17.2h5.5c0.4,0,0.8,0.5,0.8,0.5L50,28.5c0.4,0.6,0.9,1.3,0.9,1.9H35.2z"/>
	<rect x="15.4" y="17.2" class="st0" width="4.4" height="13.2"/>
	<rect x="11" y="21.6" class="st0" width="13.2" height="4.4"/>
</g>
<g>
</g>
<g>
</g>
<g>
</g>
<g>
</g>
<g>
</g>
<g>
</g>
</svg>
