<?xml version="1.0" encoding="utf-8"?>
<!-- Generator: Adobe Illustrator 17.0.0, SVG Export Plug-In . SVG Version: 6.00 Build 0)  -->
<!DOCTYPE svg PUBLIC "-//W3C//DTD SVG 1.1//EN" "http://www.w3.org/Graphics/SVG/1.1/DTD/svg11.dtd">
<svg version="1.1" id="Layer_1" xmlns="http://www.w3.org/2000/svg" xmlns:xlink="http://www.w3.org/1999/xlink" x="0px" y="0px"
	 width="65px" height="42px" viewBox="0 0 65 42" style="enable-background:new 0 0 65 42;" xml:space="preserve">
<style type="text/css">
	.st0{fill:#FFFFFF;}
</style>
<g>
	<path class="st0" d="M64.5,12.4c-1.6-0.8-3.5-1.2-5.3-1.1c0.6-1.4,0.7-3.2-0.4-4.2c-1.6-1.4-3.6-0.8-5.3,0.1
		C52.9,6,52.2,4.7,52,3.4c-0.1-0.8-1.3-0.8-1.6-0.2c-0.7,1-1.6,1.8-2.5,2.6c-1.1-1.4-2.8-3.2-4.6-2.4c-0.2,0.1-0.4,0.2-0.5,0.3
		c-2.2-3.1-5.2-3-7.8-0.1c-3-4.4-7.4-5.1-10.5-0.5c-3.8-2.7-8-2.1-7.2,3.2c-2.2,0.1-4,2.3-5.1,4.1c-1.2-1.3-3.1-2.8-4.8-2.2
		c-1.9,0.6-2.4,2.4-2.4,4.2c-1.3-0.1-2.7-0.1-3.9-0.6C0.5,11.7,0,12.1,0,12.5c0,1.5,0,3,1,4.2c0.5,0.6,1.4,0.8,2.3,0.9
		c-0.2,0.2-0.4,0.5-0.6,0.8c-0.8,1.5-0.2,3.3,0.7,4.6c0.6,0.9,2,0.1,1.4-0.8c-1-1.5-1.2-3.9,1.1-4.1c0.9-0.1,1.7,0.2,2.3,0.9
		c0.9,1,0.7,2.5,0.6,3.7c-1.7,0.1-3.4,0.4-4.8,1.1c-0.1,0-0.1,0.1-0.1,0.1c-0.2-0.3-0.3-0.5-0.5-0.8c-0.4-0.6-1.3-0.2-1.1,0.5
		C4.4,36.8,20.3,42,31.8,42c13.1,0,27-6.7,31.5-19.6c0.4-1.2-0.9-1.9-1.9-1.4c-0.3-0.2-0.7-0.3-1.1-0.2c-0.6,0.1-1.2,0.2-1.8,0.3
		c1.5-2.9,3.2-5.2,6-7C65.1,13.7,65.2,12.7,64.5,12.4z M24,4.9c0.4,0.4,1,0.3,1.3-0.2c2.4-4,6.6-3,8.8,0.7c0.3,0.6,1.1,0.5,1.5,0
		c3-1.9,5-2.1,6.2-0.5c-0.7,1.5-0.4,3.5,0,5c0.1,0.2,0.2,0.4,0.4,0.4c-0.4,0.3-0.7,0.7-1.1,1.2c-0.5-0.9-1-1.7-1.2-2.7
		c-0.2-0.6-1-0.9-1.4-0.4c-1.2,1.5-2.7,2.6-3.7,4.2c-1.3-1.1-3.1-2.5-4.7-1.8c-2.1,0.9-1.5,3.4-1,5.1c0.2,0.5,0.9,0.3,0.8-0.2
		c-0.8-1.8,0-2.9,2.1-3.3c0.9,0.5,1.7,1.1,2.4,1.9c0.3,0.3,0.9,0.3,1.2-0.1c0.7-1.4,2-2.4,3.1-3.5c0.5,1,1.1,2,1.6,2.9
		c0.3,0.5,1.2,0.6,1.5,0c0.8-1.6,1.9-3.1,3.9-3.2c2.7-0.1,2.4,3.3,2.1,5c-5.6-2.2-14.4,1.3-12.1,9.1c-0.2,0-0.5,0-0.7,0.1
		c-1.6-3.2-3.8-7.4-6.8-8.1c0.5-1.8,0.2-3.9-0.7-5.4c-1.3-2-3.7-1.8-5.6-1C21,8.3,20,6.8,18.2,6.4C18.2,3.2,21.7,2.9,24,4.9z
		 M17.7,23.6c-2.4-0.4-4.9-0.9-7.3-0.9c0.2-1.3,0-2.7-0.5-3.8c0,0,0,0,0,0c2.2-1,4.4-1.6,6.7-1C18,18.2,19,19,19.9,20
		c-1.1,0.7-2,1.8-2.3,3.2C17.6,23.4,17.6,23.5,17.7,23.6z M10.1,18.1c0.8-2.9,4-2.9,6.5-2.3c2.3,0.5,4.1,1.8,5.6,3.4
		c-0.3,0-0.6,0.1-0.9,0.2C18.6,16,13.8,16.1,10.1,18.1z M19.2,23.6c0.3-1.1,0.9-1.8,1.8-2.3c0.1,0.2,0.2,0.3,0.4,0.5
		c0.5,0.6,1.2-0.2,0.9-0.7c0,0,0-0.1-0.1-0.1c0.9-0.1,1.9,0,2.8,0.2c0.8,1.2,1.6,2.4,2.4,3.6c-1.3,0-2.5-0.1-3.8-0.2
		c-1.4-0.1-3-0.4-4.6-0.7C19.1,23.8,19.2,23.7,19.2,23.6z M26.5,21.4C26.6,21.4,26.6,21.5,26.5,21.4c0.8,0.1,1-1,0.4-1.4
		c-0.5-0.3-1.1-0.6-1.8-0.7c-0.1-0.2-0.3-0.4-0.4-0.6c0.4-0.3,0.8-0.6,1.2-0.7c0,0.7,0.8,0.7,1.1,0.3c0.1-0.2,0.2-0.4,0.3-0.6
		c1.1,0.1,2.2,0.9,3.2,2.3c1,1.5,1.7,3.1,2.5,4.6c-1.6,0.1-3.3,0.1-5,0.1C27.7,23.7,27.1,22.5,26.5,21.4z M5.8,16.6
		c-0.3,0-0.6,0.1-0.9,0.2c0,0,0,0,0,0c-0.7-0.2-1.5-0.4-2.2-0.6c-1.1-0.4-1.3-1.6-1.3-2.7c1.3,0.2,2.6,0,3.9,0.4
		c0.4,0.1,0.8-0.2,0.8-0.6c0.2-1.3,0.3-3.8,2.3-3.5c1.4,0.3,2.5,1.6,3.4,2.6c0.6,0.6,1.5-0.3,1-0.9c2.2-3.4,6.4-5.5,7.5,0
		c0.1,0.4,0.6,0.7,1,0.6c2-0.8,4.3-1.3,5,1.3c0.3,1.1,0.1,2.1-0.2,3.2c-0.9,0.2-1.8,0.7-2.7,1.6c-3.7-4.2-13.8-6.8-14.3-0.2
		C8.4,17,7.3,16.4,5.8,16.6z M59.9,23.6C54.8,34.1,43.3,39,31.8,39.3c-12.1,0.3-21.3-5.1-27.6-14.8c0,0,0,0,0.1,0
		c2.7-0.6,6.9,0.7,9.6,1.1c3.7,0.6,7.4,1.2,11.1,1.6C36.7,28.6,48.3,25.2,59.9,23.6z M42,19c2.5-0.3,4.3,1.8,5,3.9
		c-2.6,0.4-5.2,0.9-7.8,1.2c0,0,0-0.1,0-0.1C38.8,21.8,39.5,19.3,42,19z M56.3,21.1c0,0.1,0,0.1,0,0.2c-2.6,0.4-5.3,0.9-7.9,1.4
		c0,0,0-0.1,0-0.1c-0.9-2.9-3.5-5.6-6.8-4.9c-3.3,0.6-4.1,3.7-3.1,6.6c0,0,0,0,0,0c-0.6,0.1-1.3,0.2-1.9,0.2c-1-4.1,1.4-7.1,5.5-8
		c4.1-0.9,7.1,1.4,8.4,5.1c0.3,0.8,1.5,0.7,1.4-0.2c-0.1-2.4-1.1-4.1-2.7-5.1c0,0,0-0.1,0-0.1c1.5-5.7-2.8-8.6-6.4-6.4
		c0,0,0-0.1,0-0.1c-0.2-1.1-0.3-2.1,0-3.2c0.5,0.1,1.1-0.5,0.8-1.2c0-0.1-0.1-0.2-0.1-0.3C44.7,4,46.8,7.2,47,7.5
		C47.3,8,47.9,8,48.3,7.7c0.8-0.7,1.7-1.4,2.4-2.1c0.5,1.2,1.1,2.3,1.7,3.4c0.2,0.5,0.8,0.5,1.2,0.3c0.8-0.4,3.5-2,4.1-0.4
		c0.3,0.8-0.1,2-0.3,2.9c-0.6,0.2-1.2,0.6-1.8,1c-2.6,2.1-3.8,5.4-2.8,8.7c0.1,0.4,0.7,0.3,0.7-0.1c-0.3-5.2,3.7-9.4,8.6-7.9
		C59.5,15.4,57.5,18,56.3,21.1z"/>
</g>
<g>
</g>
<g>
</g>
<g>
</g>
<g>
</g>
<g>
</g>
<g>
</g>
</svg>
