<?xml version="1.0" encoding="utf-8"?>
<!-- Generator: Adobe Illustrator 17.0.0, SVG Export Plug-In . SVG Version: 6.00 Build 0)  -->
<!DOCTYPE svg PUBLIC "-//W3C//DTD SVG 1.1//EN" "http://www.w3.org/Graphics/SVG/1.1/DTD/svg11.dtd">
<svg version="1.1" id="Layer_1" xmlns="http://www.w3.org/2000/svg" xmlns:xlink="http://www.w3.org/1999/xlink" x="0px" y="0px"
	 width="57.1px" height="36px" viewBox="0 0 57.1 36" style="enable-background:new 0 0 57.1 36;" xml:space="preserve">
<style type="text/css">
	.st0{fill:none;stroke:#FFFFFF;stroke-miterlimit:10;}
	.st1{fill:#FFFFFF;stroke:#FFFFFF;stroke-miterlimit:10;}
</style>
<path class="st0" d="M28.6,0.5C16.3,0.5,5.8,7.6,0.6,18c5.2,10.4,15.8,17.5,28,17.5c12.2,0,22.8-7.1,28-17.5
	C51.4,7.6,40.8,0.5,28.6,0.5z"/>
<path class="st1" d="M42.4,9.8c3.3,2.1,6.1,4.9,8.2,8.2c-2.1,3.3-4.9,6.1-8.2,8.2c-4.1,2.6-8.9,4-13.8,4c-4.9,0-9.7-1.4-13.8-4
	c-3.3-2.1-6.1-4.9-8.2-8.2c2.1-3.3,4.9-6.1,8.2-8.2c0.2-0.1,0.4-0.3,0.6-0.4c-0.5,1.5-0.8,3.1-0.8,4.8c0,7.7,6.3,14,14,14
	c7.7,0,14-6.3,14-14c0-1.7-0.3-3.3-0.8-4.8C41.9,9.5,42.2,9.6,42.4,9.8z"/>
<circle class="st1" cx="23.3" cy="12.4" r="5.2"/>
<g>
</g>
<g>
</g>
<g>
</g>
<g>
</g>
<g>
</g>
<g>
</g>
</svg>
