<?xml version="1.0" encoding="utf-8"?>
<!-- Generator: Adobe Illustrator 17.0.0, SVG Export Plug-In . SVG Version: 6.00 Build 0)  -->
<!DOCTYPE svg PUBLIC "-//W3C//DTD SVG 1.1//EN" "http://www.w3.org/Graphics/SVG/1.1/DTD/svg11.dtd">
<svg version="1.1" id="Layer_1" xmlns="http://www.w3.org/2000/svg" xmlns:xlink="http://www.w3.org/1999/xlink" x="0px" y="0px"
	 width="43.3px" height="52px" viewBox="0 0 43.3 52" style="enable-background:new 0 0 43.3 52;" xml:space="preserve">
<style type="text/css">
	.st0{fill:#FFFFFF;}
</style>
<g>
	<g>
		<path class="st0" d="M38.9,34c-0.4-1-1.4-1.6-2.4-2l-3.2-1.5c0-2.3,0-14,0-15.3c0-1.9-0.2-3.6-0.7-5.1l4-1.4l0,3.7l-0.3,0
			c-0.2,0-0.4,0.1-0.4,0.3l-0.4,3c0,0.1,0,0.2,0.1,0.3c0.1,0.1,0.1,0.1,0.2,0.1l2.8,0c0.1,0,0.2-0.1,0.2-0.1
			c0.1-0.1,0.1-0.2,0.1-0.3c-0.1-0.6-0.1-1.2-0.2-1.8l-0.1-1.2c0-0.2-0.2-0.3-0.4-0.3l-0.3,0l0-4.2l0.1-0.1L38.6,8
			C39,7.8,39.3,7.4,39.3,7c0-0.4-0.3-0.8-0.7-0.9L22,0.1c-0.2-0.1-0.5-0.1-0.7,0l-16.6,6C4.3,6.2,4,6.6,4,7C4,7.4,4.3,7.8,4.7,8
			l6,2.2c-0.5,1.5-0.8,3.3-0.7,5.2l0,15.1L6.7,32c-1,0.4-1.9,1-2.4,2c0,0-7,18-3.2,18h41C46,52,38.9,34,38.9,34z M28,32.5
			c0,0-5.4,1.8-6.4,8c0,0,0,0,0,0c-1-6.2-6.4-8-6.4-8l3.5-3.5c-5-2.2-6.3-9.8-6.3-9.8c-0.3-1.1-0.3-1.8-0.3-1.8
			c2.5-0.2,11.1-0.9,11.7-3.7c0.8,1.5,5.1,5.3,6.9,5.6c0,0-1.7,7.5-6.3,9.8L28,32.5z"/>
	</g>
</g>
<g>
</g>
<g>
</g>
<g>
</g>
<g>
</g>
<g>
</g>
<g>
</g>
</svg>
