<?xml version="1.0" encoding="utf-8"?>
<!-- Generator: Adobe Illustrator 17.0.0, SVG Export Plug-In . SVG Version: 6.00 Build 0)  -->
<!DOCTYPE svg PUBLIC "-//W3C//DTD SVG 1.1//EN" "http://www.w3.org/Graphics/SVG/1.1/DTD/svg11.dtd">
<svg version="1.1" id="Layer_1" xmlns="http://www.w3.org/2000/svg" xmlns:xlink="http://www.w3.org/1999/xlink" x="0px" y="0px"
	 width="49.2px" height="49.3px" viewBox="0 0 49.2 49.3" style="enable-background:new 0 0 49.2 49.3;" xml:space="preserve">
<style type="text/css">
	.st0{fill:#FFFFFF;}
	.st1{fill:none;stroke:#FFFFFF;stroke-width:3;stroke-miterlimit:10;}
	.st2{filter:url(#Adobe_OpacityMaskFilter);}
	.st3{mask:url(#SVGID_1_);fill:#FFFFFF;}
</style>
<g>
	<circle class="st0" cx="18.3" cy="20" r="3"/>
	<circle class="st0" cx="10.5" cy="28" r="2.5"/>
	<g>
		<path class="st0" d="M39.2,11.2c0,0,0,0.1-0.1,0.3c-0.1,0.2-0.3,0.5-0.6,0.9c-0.3,0.4-0.7,0.8-1.2,1.2c-0.5,0.4-1.1,0.8-1.9,1.1
			c-0.4,0.2-0.8,0.3-1.2,0.5c-0.4,0.1-0.8,0.2-1.3,0.3c-0.9,0.2-1.9,0.3-2.8,0.3c-0.5,0-1,0-1.5-0.1c-0.5,0-1-0.1-1.5-0.2
			c-0.5-0.1-1-0.2-1.5-0.3l-1.5-0.4c-0.9-0.3-1.9-0.6-2.8-0.8c-0.9-0.2-1.8-0.5-2.6-0.7c-0.8-0.3-1.7-0.4-2.4-0.5
			c-0.8-0.1-1.5-0.2-2.2-0.2c-0.4,0-0.7,0-1,0c-0.3,0-0.6,0-0.9,0c-0.6,0-1.1,0-1.5,0.1c-0.8,0.1-1.4,0.1-1.4,0.1s0.4-0.3,1.2-0.7
			c0.4-0.2,0.9-0.5,1.5-0.7c0.3-0.1,0.6-0.2,0.9-0.4c0.3-0.1,0.7-0.2,1.1-0.3c0.8-0.2,1.6-0.2,2.5-0.3c0.9,0,1.8,0,2.8,0.2
			c1,0.1,1.9,0.3,2.9,0.5c1,0.2,1.9,0.5,2.8,0.8c0.9,0.3,1.8,0.5,2.7,0.7c0.4,0.1,0.9,0.2,1.3,0.3c0.4,0.1,0.9,0.2,1.3,0.2
			c0.8,0.1,1.7,0.1,2.4,0.2c0.8,0,1.5-0.1,2.2-0.2c0.7-0.1,1.3-0.3,1.8-0.5c0.5-0.2,1-0.4,1.4-0.6C38.8,11.5,39.2,11.2,39.2,11.2z"
			/>
	</g>
	<path class="st1" d="M47.7,26.3c0,9.9-5,19.9-14.9,21.6c-6-0.2-13.5-0.2-16.8-0.2C7.4,44.2,1.5,35.9,1.5,26.3
		c0-8.6,4.7-16.2,11.7-20.1c0.5-0.3-3.4-3.3-2.7-3.6c3-1.4,25.8-1.3,28.8,0.1C40,2.9,35.8,6,36.4,6.4C43.2,10.5,47.7,17.8,47.7,26.3
		z"/>
	<defs>
		<filter id="Adobe_OpacityMaskFilter" filterUnits="userSpaceOnUse" x="15.3" y="26.9" width="24.6" height="11.2">
			
				<feColorMatrix  type="matrix" values="-1 0 0 0 1  0 -1 0 0 1  0 0 -1 0 1  0 0 0 1 0" color-interpolation-filters="sRGB" result="source"/>
			<feFlood  style="flood-color:white;flood-opacity:1" result="back"/>
			<feBlend  in="source" in2="back" mode="normal"/>
		</filter>
	</defs>
	<mask maskUnits="userSpaceOnUse" x="15.3" y="26.9" width="24.6" height="11.2" id="SVGID_1_">
		<g class="st2">
			<circle class="st0" cx="22.4" cy="31.8" r="1.9"/>
		</g>
	</mask>
	<path class="st3" d="M15.3,32.8c0,0,7.6-11.9,18.3-1.3c0,0,4.4-5.7,6.2-4.4c0.3,1.1-0.2,0.9-0.5,1.8c-1.1,1.5-2.3,4.6,0,8
		c0.5,1.4-0.4,1.2-0.9,1.2c-2.1,0-3.7-2.3-4.7-3.6C32,36,23.8,42.8,15.3,32.8z"/>
</g>
<g>
</g>
<g>
</g>
<g>
</g>
<g>
</g>
<g>
</g>
<g>
</g>
</svg>
