<?xml version="1.0" encoding="utf-8"?>
<!-- Generator: Adobe Illustrator 17.0.0, SVG Export Plug-In . SVG Version: 6.00 Build 0)  -->
<!DOCTYPE svg PUBLIC "-//W3C//DTD SVG 1.1//EN" "http://www.w3.org/Graphics/SVG/1.1/DTD/svg11.dtd">
<svg version="1.1" id="Layer_1" xmlns="http://www.w3.org/2000/svg" xmlns:xlink="http://www.w3.org/1999/xlink" x="0px" y="0px"
	 width="46.9px" height="52.9px" viewBox="0 0 46.9 52.9" style="enable-background:new 0 0 46.9 52.9;" xml:space="preserve">
<style type="text/css">
	.st0{filter:url(#Adobe_OpacityMaskFilter);}
	.st1{fill:#FFFFFF;}
	.st2{mask:url(#SVGID_1_);fill:#FFFFFF;}
</style>
<defs>
	<filter id="Adobe_OpacityMaskFilter" filterUnits="userSpaceOnUse" x="0" y="0" width="46.9" height="52.9">
		
			<feColorMatrix  type="matrix" values="-1 0 0 0 1  0 -1 0 0 1  0 0 -1 0 1  0 0 0 1 0" color-interpolation-filters="sRGB" result="source"/>
		<feFlood  style="flood-color:white;flood-opacity:1" result="back"/>
		<feBlend  in="source" in2="back" mode="normal"/>
	</filter>
</defs>
<mask maskUnits="userSpaceOnUse" x="0" y="0" width="46.9" height="52.9" id="SVGID_1_">
	<g class="st0">
		<circle class="st1" cx="42" cy="9" r="0.9"/>
	</g>
</mask>
<path class="st2" d="M3.8,28.8c-1.8-0.9-2.3,0.3-2.5,1.1c3-1.2,2.9,6.7,9.9,9.5c13.8,3.2,16.8-5.1,19.1-11.1
	C30.1,40.4,21.5,42.7,16,43.4c2.5,0.8,6.9,1.2,6.9,1.2s0,0,0,2.4c-2,0.8-3,1.4-4,2.8s0.2,4.2,2.4,2.8c2.4-2.8,4.6-2.3,6.1-0.5
	c2,0.9,3,0.6,3.2-0.9c-0.5-3.1-4.8-3.9-4.8-3.9v-2.6C43.5,41.5,42.8,32,42.4,26.9c-2.9-8.6-0.4-12,0.6-13s2.5-0.4,3.9,0.8
	c0.4-1.8-1-3.8-2.1-4.9C44.2,7.5,43.6,6,43.6,6c1.6-2.9-0.4-4.2-2.4-4.1c-1.9-3.4-4.1-1.4-5.1,0C30.6,2.2,33.9,6,33.9,6
	c-0.8-1.4-3.2,13.3-7.8,15.8C11.8,25.4,3.6,17.5,0,14.1C0.2,22.7,5,24.4,4.7,25c-3.5-0.9-4.1,1.6-4.1,1.6
	C1.6,25.7,5.5,27.8,3.8,28.8z"/>
<g>
</g>
<g>
</g>
<g>
</g>
<g>
</g>
<g>
</g>
<g>
</g>
</svg>
