<?xml version="1.0" encoding="utf-8"?>
<!-- Generator: Adobe Illustrator 17.0.0, SVG Export Plug-In . SVG Version: 6.00 Build 0)  -->
<!DOCTYPE svg PUBLIC "-//W3C//DTD SVG 1.1//EN" "http://www.w3.org/Graphics/SVG/1.1/DTD/svg11.dtd">
<svg version="1.1" id="Layer_1" xmlns="http://www.w3.org/2000/svg" xmlns:xlink="http://www.w3.org/1999/xlink" x="0px" y="0px"
	 width="32.2px" height="52px" viewBox="0 0 32.2 52" style="enable-background:new 0 0 32.2 52;" xml:space="preserve">
<style type="text/css">
	.st0{fill:#FFFFFF;}
</style>
<g>
	<g>
		<path class="st0" d="M16.6,14.6c3.9,0,7-3.3,7-7.3c0-4-3.2-7.3-7-7.3c-3.9,0-7.1,3.3-7.1,7.3C9.5,11.3,12.7,14.6,16.6,14.6z"/>
		<path class="st0" d="M29.1,20.8c-0.4-1.1-2.3-4.3-7.8-4.3l-10.6,0c-5.3-0.3-7.4,2.8-7.7,4.2c0,0-3.6,11.4-2.9,14
			c0.4,1.6,3.2,3.6,6.2,5.1L2.3,52h28.3l-3.9-12.7c2.7-1.4,5.1-3.2,5.4-4.7C32.7,32,29.1,20.8,29.1,20.8z M11.8,33.3
			c-0.5,0.2-1,0.3-1.6,0.3c-2.2,0-4-1.8-4-4.1s1.8-4.1,4-4.1c2.2,0,4,1.8,4,4c0.7-0.5,1.4-0.7,1.9-0.8c0,0,0,0,0,0
			c0.8-0.2,1.4,0,1.4,0c2.7,0.6,8.6,3.2,8.6,3.2s-3.2,3.9-8.9,3.9c-0.2,0-0.3,0-0.4,0h0c-0.5,0-1,0-1.4-0.1
			C12.7,35.3,11.9,34.3,11.8,33.3z"/>
	</g>
</g>
<g>
</g>
<g>
</g>
<g>
</g>
<g>
</g>
<g>
</g>
<g>
</g>
</svg>
