<?xml version="1.0" encoding="utf-8"?>
<!-- Generator: Adobe Illustrator 17.0.0, SVG Export Plug-In . SVG Version: 6.00 Build 0)  -->
<!DOCTYPE svg PUBLIC "-//W3C//DTD SVG 1.1//EN" "http://www.w3.org/Graphics/SVG/1.1/DTD/svg11.dtd">
<svg version="1.1" id="Layer_1" xmlns="http://www.w3.org/2000/svg" xmlns:xlink="http://www.w3.org/1999/xlink" x="0px" y="0px"
	 width="21.8px" height="52px" viewBox="0 0 21.8 52" style="enable-background:new 0 0 21.8 52;" xml:space="preserve">
<style type="text/css">
	.st0{fill:#FFFFFF;}
</style>
<g>
	<path class="st0" d="M14.9,0.8c0-0.4-0.4-0.8-0.8-0.8H7.7C7.3,0,6.9,0.4,6.9,0.8v3.9c1.2,0,7.1,0,8,0L14.9,0.8L14.9,0.8z"/>
	<g>
		<path class="st0" d="M21.7,15.6L15.1,6c-0.1-0.2-0.4-0.3-0.6-0.3H7.3C7.1,5.7,6.8,5.8,6.7,6l-6.6,9.6C0,15.7,0,15.9,0,16v32.3
			c0,2,1.6,3.6,3.6,3.6h14.5c2,0,3.6-1.6,3.6-3.6V16C21.8,15.9,21.8,15.7,21.7,15.6z M7.7,7.1h6.5l6.2,9.1v6.4h-1.5h-16H1.5v-6.4
			L7.7,7.1z M18.2,50.5H3.6c-1.2,0-2.2-1-2.2-2.2V35.4h1.5h16h1.5v12.9C20.4,49.6,19.4,50.5,18.2,50.5z"/>
		<polygon class="st0" points="18.9,16.7 16.8,13.6 5,13.6 2.9,16.7 2.9,21 18.9,21 		"/>
		<path class="st0" d="M2.9,48.4c0,0.4,0.3,0.7,0.7,0.7h14.5c0.4,0,0.7-0.3,0.7-0.7V37h-16V48.4z"/>
	</g>
</g>
<g>
</g>
<g>
</g>
<g>
</g>
<g>
</g>
<g>
</g>
<g>
</g>
</svg>
