<?xml version="1.0" encoding="utf-8"?>
<!-- Generator: Adobe Illustrator 17.0.0, SVG Export Plug-In . SVG Version: 6.00 Build 0)  -->
<!DOCTYPE svg PUBLIC "-//W3C//DTD SVG 1.1//EN" "http://www.w3.org/Graphics/SVG/1.1/DTD/svg11.dtd">
<svg version="1.1" id="Layer_1" xmlns="http://www.w3.org/2000/svg" xmlns:xlink="http://www.w3.org/1999/xlink" x="0px" y="0px"
	 width="62.3px" height="43.7px" viewBox="0 0 62.3 43.7" style="enable-background:new 0 0 62.3 43.7;" xml:space="preserve">
<style type="text/css">
	.st0{filter:url(#Adobe_OpacityMaskFilter);}
	.st1{fill:#FFFFFF;stroke:#FFFFFF;stroke-miterlimit:10;}
	.st2{mask:url(#SVGID_2_);fill:#FFFFFF;}
	.st3{fill:#FFFFFF;}
</style>
<g>
	<defs>
		<filter id="Adobe_OpacityMaskFilter" filterUnits="userSpaceOnUse" x="0.5" y="0" width="61.7" height="23">
			
				<feColorMatrix  type="matrix" values="-1 0 0 0 1  0 -1 0 0 1  0 0 -1 0 1  0 0 0 1 0" color-interpolation-filters="sRGB" result="source"/>
			<feFlood  style="flood-color:white;flood-opacity:1" result="back"/>
			<feBlend  in="source" in2="back" mode="normal"/>
		</filter>
	</defs>
	<mask maskUnits="userSpaceOnUse" x="0.5" y="0" width="61.7" height="23" id="SVGID_2_">
		<g class="st0">
			<path class="st1" d="M10.3,18.4c-0.4,0-0.8-0.2-0.9-0.6c-0.2-0.5,0-1.1,0.5-1.3l21.1-8.4c0.5-0.2,1.1,0,1.3,0.5
				c0.2,0.5,0,1.1-0.5,1.3l-21.2,8.4C10.6,18.4,10.4,18.4,10.3,18.4z"/>
		</g>
	</mask>
	<path class="st2" d="M31.4,23c-0.1,0-0.2,0-0.3-0.1L1.2,12.3c-0.4-0.1-0.7-0.5-0.7-1c0-0.4,0.3-0.8,0.7-1L31.1,0.1
		C31.2,0,31.3,0,31.4,0c0.1,0,0.2,0,0.3,0.1l29.8,10.3c0.4,0.1,0.7,0.5,0.7,1c0,0.4-0.3,0.8-0.7,1L31.7,22.9
		C31.6,23,31.5,23,31.4,23z"/>
	<path class="st3" d="M12.4,19.8l18.2,6.1c0,0,1.8,0.4,2.7,0c2.6-0.7,17.7-6.1,17.7-6.1v10.2c0,0-11.8,12.8-38.3,1.8
		c0.1-1.4-0.3-2.6-0.3-2.6s3.6-1.8,0.1-5.6C12.5,21.5,12.4,19.8,12.4,19.8z"/>
	<path class="st3" d="M8.5,14.9c0,0-3.1,3.3-2.9,8.1c-1.7,1.3-3.4,4.2,0,6.3c0.2,1.9-2.7,8.6-5.1,10.9c-1.4,1.4,0.2,1.4,0,1.6
		c2.5,1.4,4.6,3.8,7-0.6c0.9-1.6,1.6-0.5,1-11.7c0,0,3.9-2.6,0-6.6c-0.2-2.2,0.9-5.4,3.8-8C14.7,12.9,8.5,14.9,8.5,14.9z"/>
</g>
<g>
</g>
<g>
</g>
<g>
</g>
<g>
</g>
<g>
</g>
<g>
</g>
</svg>
