<?xml version="1.0" encoding="utf-8"?>
<!-- Generator: Adobe Illustrator 17.0.0, SVG Export Plug-In . SVG Version: 6.00 Build 0)  -->
<!DOCTYPE svg PUBLIC "-//W3C//DTD SVG 1.1//EN" "http://www.w3.org/Graphics/SVG/1.1/DTD/svg11.dtd">
<svg version="1.1" id="Layer_1" xmlns="http://www.w3.org/2000/svg" xmlns:xlink="http://www.w3.org/1999/xlink" x="0px" y="0px"
	 width="43.9px" height="50.5px" viewBox="0 0 43.9 50.5" style="enable-background:new 0 0 43.9 50.5;" xml:space="preserve">
<style type="text/css">
	.st0{fill:#FFFFFF;}
</style>
<g>
	<path class="st0" d="M42.6,25.1v-8.8c0-0.7-0.6-1.3-1.3-1.3h-2.5c-0.7,0-1.8,0-2.5,0c-0.7,0-1.8,0-2.5,0h-4.6c-1.1-1.9-3-3.4-5.1-4
		c0.6-0.3,1-0.9,1-1.6c0-1-0.8-1.9-1.9-1.9h-0.6V5h5.6c1,0,1.9-0.8,1.9-1.9c0-1-0.8-1.9-1.9-1.9h-5.6c0-0.7-0.4-1.3-1.3-1.3
		c-0.8,0-1.3,0.6-1.3,1.3h-5.6c-1,0-1.9,0.8-1.9,1.9c0,1,0.8,1.9,1.9,1.9h5.6v2.5h-0.6c-1,0-1.9,0.8-1.9,1.9c0,0.8,0.5,1.4,1.1,1.7
		c-1.6,0.5-2.9,1.5-4,2.7H5V10c0-1.4-1.1-2.5-2.5-2.5C1.1,7.5,0,8.6,0,10v18.8c0,1.4,1.1,2.5,2.5,2.5c1.4,0,2.5-1.1,2.5-2.5v-5h8.6
		c1.5,2.9,4.5,4.8,8,4.8c4.4,0,8-3.2,8.8-7.3h3.5c0.7,0,1.3,0.6,1.3,1.3v2.5c-0.7,0-1.3,0.6-1.3,1.3v2.5c0,0.7,0.6,1.3,1.3,1.3h7.5
		c0.7,0,1.3-0.6,1.3-1.3v-2.5C43.9,25.6,43.3,25.1,42.6,25.1z"/>
	<path class="st0" d="M33.4,45.2c0,2.9,2.4,5.3,5.2,5.3c2.9,0,5.2-2.4,5.2-5.3c0-2.9-5.2-10.4-5.2-10.4S33.4,42.3,33.4,45.2z"/>
</g>
<g>
</g>
<g>
</g>
<g>
</g>
<g>
</g>
<g>
</g>
<g>
</g>
</svg>
