<?xml version="1.0" encoding="utf-8"?>
<!-- Generator: Adobe Illustrator 17.0.0, SVG Export Plug-In . SVG Version: 6.00 Build 0)  -->
<!DOCTYPE svg PUBLIC "-//W3C//DTD SVG 1.1//EN" "http://www.w3.org/Graphics/SVG/1.1/DTD/svg11.dtd">
<svg version="1.1" id="Layer_1" xmlns="http://www.w3.org/2000/svg" xmlns:xlink="http://www.w3.org/1999/xlink" x="0px" y="0px"
	 width="57.1px" height="52px" viewBox="0 0 57.1 52" style="enable-background:new 0 0 57.1 52;" xml:space="preserve">
<style type="text/css">
	.st0{fill:#FFFFFF;}
</style>
<g>
	<path class="st0" d="M5,31.6c-0.1,0-0.1,0.1,0,0.1S5.1,31.6,5,31.6z"/>
	<path class="st0" d="M1.3,33.4C1.3,33.4,1.3,33.5,1.3,33.4C1.4,33.5,1.4,33.4,1.3,33.4z"/>
	<path class="st0" d="M56.8,37.1c0-1-1.5-1.6-2-0.5c-0.1,0.2-0.2,0.3-0.3,0.5c0,0-0.1-0.1-0.1-0.1c-4.3-2.4-9.1-3.7-14-4
		c1.2-1.3,2.3-2.8,3.3-4.2c2.4-3.4,4.1-7.8,3.1-11.9c-0.1-0.4-0.5-0.6-0.8-0.6c-8.1,0.3-14.7,9-14.8,16.7c0,1,1.5,1,1.6,0
		c0.4-3.9,2.3-7.3,4.9-10.2c1.4-1.6,8.5-7.4,7.6-2.1c-1,6-6.6,10.9-11,14.6c-0.4,0.3-0.4,1-0.2,1.4c-0.1-0.2,0.4,1.6,0.7,2.9
		c-1.6-0.4-3.3-0.5-4.9-0.9c-1.5-0.4-3-0.9-4.5-1.4c1.2-1.4,2.9-2,4.8-2.2c1-0.1,1.1-1.5,0-1.6c-2.8-0.2-5.5,1.6-6.7,4.1
		c-0.2,0.5,0.2,1,0.6,1c0,0,0.1,0.1,0.1,0.1c3.2,1.5,7.4,3.3,11,2.4c0.1,0,0.2-0.1,0.3-0.1c0.4,0.1,0.9-0.2,0.8-0.8
		c-0.7-3.3,0.6-3.7,2.7-5.6c0.2-0.2,0.3-0.3,0.5-0.5c0.1,0.1,0.2,0.1,0.3,0.2c4.3,0.9,8.5,2,12.5,3.8c-7.4,1.8-14.4,3.6-22.2,3.8
		c-9.1,0.2-18.3-1.2-26.4-5.5c0-0.1,0-0.2,0-0.3c0-0.1,0-0.2,0-0.3c4.2-1.5,8.4-2.3,13-2.7c4.3-0.4,8.9,0.3,13.1-0.8
		c0.5-0.1,0.5-0.8,0-1c-8.5-2.3-21-0.7-28.7,3.8c-0.2-0.1-0.6,0-0.6,0.3c0,0,0,0,0,0c-0.5,0.3-0.4,0.8-0.1,1.1
		C0,48.4,15.4,51.7,24.9,52c10.1,0.3,26.8-2.5,31.4-13.3c0.1-0.1,0.3-0.2,0.4-0.2C57.3,38.1,57.2,37.4,56.8,37.1z M26.9,49.3
		c-9.3,0.2-21.7-2.5-25.2-12.1c0.2,0.1,0.5,0.1,0.8,0.1c-0.2,0-0.1,0,0.2,0c0,0,0.1,0,0.1,0c6.7,5.3,15.9,6.4,24.2,6.6
		c7.4,0.2,17-0.3,24.7-3.1C45.6,47.2,35.5,49.1,26.9,49.3z"/>
	<path class="st0" d="M24.1,34.7C19,33,13,35.2,7.9,35.9c-0.7,0.1-0.6,1.4,0.2,1.3c2.5-0.2,4.9-0.7,7.4-1.1c2.9-0.5,5.5-0.4,8.5-0.2
		C24.6,35.9,24.7,34.9,24.1,34.7z"/>
	<path class="st0" d="M39.2,36.5c-0.8,0-0.8,1.2,0,1.2c1,0,2,0.1,2.9,0.3c0.5,0.1,1,0.3,1.5,0.5c0.4,0.2,0.6,0.4,1.1,0.4
		c0.3,0,0.6-0.2,0.6-0.6C45.3,36.1,40.6,36.5,39.2,36.5z"/>
	<path class="st0" d="M11.3,25.4c-2-0.7-2.7-2.5-3.5-4.3c-0.9-1.9-2.1-3.8-4.1-4.7C2,15.7,0.5,18.1,2.2,19c3.7,2,3.9,8,8.9,7.9
		C12,26.9,12.1,25.7,11.3,25.4z"/>
	<path class="st0" d="M21.9,26.1c-3.6-1.6-4.1-3.5-3.3-7.1c0.5-2,0.3-3.7-0.4-5.6c-1.4-3.8-5.3-9-9-10.8C8.4,2.2,7.4,2.8,7.6,3.8
		c0.7,2.4,2.8,3.9,4.4,5.7c2.8,3.1,4.2,6.2,3.5,10.4c-0.8,4.5,1.6,6.5,5.8,7.5C22.1,27.6,22.6,26.5,21.9,26.1z"/>
	<path class="st0" d="M27.5,1.1c0-1.1-1.5-1.5-2-0.6c-2.5,4.2,1.8,6.8,4,9.8c2.4,3.3-0.3,5.6-2,8.1c-1.2,1.7-1.1,3.6-0.6,5.5
		c0.2,0.8,1.5,0.7,1.5-0.2c-0.2-4.8,5.1-6.5,4.9-11.5C33,7.5,27.7,5.8,27.5,1.1z"/>
</g>
<g>
</g>
<g>
</g>
<g>
</g>
<g>
</g>
<g>
</g>
<g>
</g>
</svg>
