<?xml version="1.0" encoding="utf-8"?>
<!-- Generator: Adobe Illustrator 17.0.0, SVG Export Plug-In . SVG Version: 6.00 Build 0)  -->
<!DOCTYPE svg PUBLIC "-//W3C//DTD SVG 1.1//EN" "http://www.w3.org/Graphics/SVG/1.1/DTD/svg11.dtd">
<svg version="1.1" id="Layer_1" xmlns="http://www.w3.org/2000/svg" xmlns:xlink="http://www.w3.org/1999/xlink" x="0px" y="0px"
	 width="40.2px" height="35px" viewBox="0 0 40.2 35" style="enable-background:new 0 0 40.2 35;" xml:space="preserve">
<style type="text/css">
	.st0{fill:#FFFFFF;}
</style>
<path class="st0" d="M39.6,11.8c-0.6,0-1.2,0-1.7,0c-0.2-2-1.6-4-3.6-4.6c-0.2-2.5-2.2-4.4-4.8-4.4c-0.4,0-0.9,0.1-1.3,0.2
	c-0.8-1.7-2.5-2.8-4.3-2.8c-1.4,0-2.7,0.6-3.6,1.6C19.4,0.7,18.1,0,16.6,0c-2,0-3.8,1.3-4.5,3.1c-0.5-0.2-1.1-0.3-1.7-0.3
	c-2.5,0-4.6,2-4.8,4.5c-2,0.6-3.3,2.4-3.4,4.5c-0.5,0-1.1,0-1.6,0c-0.4,0-0.7,0.3-0.7,0.7c0,4.6,0.1,8.6,1.8,11.9
	c1.5,2.9,4.2,5.2,8.6,7.2c-0.5,0.6-0.9,1.5-0.9,2.7c0,0.4,0.3,0.7,0.7,0.7h18.5c0.4,0,0.7-0.3,0.7-0.7c0-1-0.3-1.9-0.7-2.5
	c4.9-2.2,7.9-4.8,9.7-8.2c1.7-3.4,1.9-7.1,1.9-11C40.2,12.2,40,11.8,39.6,11.8z M27.1,31C27.1,31,27.1,31,27.1,31l-2.9,0
	c-0.4,0-0.7,0.3-0.7,0.7s0.3,0.7,0.7,0.7h3.1c0.2,0,0.6,0.5,0.7,1.2H11c0.1-0.8,0.5-1.2,0.7-1.2h7.3c0.4,0,0.7-0.3,0.7-0.7
	S19.3,31,18.9,31h-6.5c0,0,0,0,0,0c-5-2.1-7.9-4.3-9.4-7.3c-1.4-2.8-1.6-6.5-1.6-10.6c6.7,0,36.9,0,37.5,0
	C38.8,20.8,37.7,26.7,27.1,31z"/>
<g>
</g>
<g>
</g>
<g>
</g>
<g>
</g>
<g>
</g>
<g>
</g>
</svg>
