<?xml version="1.0" encoding="utf-8"?>
<!-- Generator: Adobe Illustrator 17.0.0, SVG Export Plug-In . SVG Version: 6.00 Build 0)  -->
<!DOCTYPE svg PUBLIC "-//W3C//DTD SVG 1.1//EN" "http://www.w3.org/Graphics/SVG/1.1/DTD/svg11.dtd">
<svg version="1.1" id="Layer_1" xmlns="http://www.w3.org/2000/svg" xmlns:xlink="http://www.w3.org/1999/xlink" x="0px" y="0px"
	 width="52.2px" height="44px" viewBox="0 0 52.2 44" style="enable-background:new 0 0 52.2 44;" xml:space="preserve">
<style type="text/css">
	.st0{fill:#FFFFFF;}
</style>
<path class="st0" d="M51.1,9.1c-2-5.2-5.9-8.3-11.6-8.9C33.9-0.5,29.5,1.9,26,6.6c-0.3-0.4-0.5-0.6-0.7-0.8C20.1-1,10.9-1.9,4.7,3.6
	C2,5.9,0.4,9.1,0.1,12.6c-0.4,4.5,1.3,8.6,4.6,11.7c6.5,6.3,13,12.4,19.5,18.6c1.2,1.1,2.3,1.5,3.6,0.3c6.9-6.6,13.9-13.1,20.6-19.8
	C52.2,19.4,53.1,14.3,51.1,9.1"/>
<g>
</g>
<g>
</g>
<g>
</g>
<g>
</g>
<g>
</g>
<g>
</g>
</svg>
