<?xml version="1.0" encoding="utf-8"?>
<!-- Generator: Adobe Illustrator 17.0.0, SVG Export Plug-In . SVG Version: 6.00 Build 0)  -->
<!DOCTYPE svg PUBLIC "-//W3C//DTD SVG 1.1//EN" "http://www.w3.org/Graphics/SVG/1.1/DTD/svg11.dtd">
<svg version="1.1" id="Layer_1" xmlns="http://www.w3.org/2000/svg" xmlns:xlink="http://www.w3.org/1999/xlink" x="0px" y="0px"
	 width="47.6px" height="52px" viewBox="0 0 47.6 52" style="enable-background:new 0 0 47.6 52;" xml:space="preserve">
<style type="text/css">
	.st0{fill:#FFFFFF;}
</style>
<g>
	<path class="st0" d="M45.2,12.7c-0.4-4.2-1.1-7.4-2.2-8.7c-4.4-5.2-35.3-5.6-38.8,0c-0.9,1.4-1.5,4.6-1.9,8.7C1,12.9,0,14,0,15.3
		v5.1c0,1.1,0.7,2.1,1.7,2.5c-0.2,8,0,16.4,0.3,20.5c0,3.2,2.2,2.7,2.2,2.7h2v3.5c0,1.4,1.4,2.5,3.2,2.5c1.7,0,3.2-1.1,3.2-2.5v-3.5
		H36v3.5c0,1.4,1.4,2.5,3.2,2.5c1.7,0,3.2-1.1,3.2-2.5v-3.5H43c0,0,2.5,0.3,2.7-1.2c0-4.1,0.3-13.3,0-22c1.1-0.3,1.8-1.3,1.8-2.5
		v-5.1C47.6,13.9,46.5,12.8,45.2,12.7z M11.7,4.8h23.7v3.6H11.7V4.8z M12.1,42c-1.9,0-3.4-1.5-3.4-3.4c0-1.9,1.5-3.4,3.4-3.4
		s3.4,1.5,3.4,3.4C15.4,40.5,13.9,42,12.1,42z M35.3,42c-1.9,0-3.4-1.5-3.4-3.4c0-1.9,1.5-3.4,3.4-3.4c1.9,0,3.4,1.5,3.4,3.4
		C38.7,40.5,37.2,42,35.3,42z M39.6,27.2H7.6V10.4h32.1V27.2z"/>
</g>
<g>
</g>
<g>
</g>
<g>
</g>
<g>
</g>
<g>
</g>
<g>
</g>
</svg>
