<?xml version="1.0" encoding="utf-8"?>
<!-- Generator: Adobe Illustrator 17.0.0, SVG Export Plug-In . SVG Version: 6.00 Build 0)  -->
<!DOCTYPE svg PUBLIC "-//W3C//DTD SVG 1.1//EN" "http://www.w3.org/Graphics/SVG/1.1/DTD/svg11.dtd">
<svg version="1.1" id="Layer_1" xmlns="http://www.w3.org/2000/svg" xmlns:xlink="http://www.w3.org/1999/xlink" x="0px" y="0px"
	 width="48.3px" height="45px" viewBox="0 0 48.3 45" style="enable-background:new 0 0 48.3 45;" xml:space="preserve">
<style type="text/css">
	.st0{fill:#FFFFFF;}
</style>
<g>
	<g>
		<path class="st0" d="M43.3,29.8c-2.3,1.5-5,3.2-7.8,2.7c-1.5-0.3-2.6-1.2-3.5-2.4c0.3-1.4,0.1-3-0.6-4.4c-0.3-0.7-0.7-1.4-1.1-2.2
			c0.4,0,0.7-0.1,1.1-0.1c0.2,0,0.3-0.1,0.4-0.1c1.7,0.9,3.8,1,5.6-0.1c2.7-1.6,3.7-5.3,2.1-7.9c-1.4-2.2-2.7-4.4-4.1-6.6
			C33.8,6,30.3,5,27.5,6.6c-0.9,0.5-1.6,1.3-2.1,2.1c-1.4,0.3-2.7,0.9-3.8,1.9c-0.4,0.3-0.7,0.7-1,1.1c-1.4-0.4-2.9-0.3-4.3,0.6
			c-0.1,0.1-0.3,0.2-0.4,0.3c-0.2,0-0.5-0.1-0.8,0c-4.4,0.5-8.6,1.4-12.7,2.9c-4.1,1.5-2.3,8.1,1.8,6.6c3.1-1.1,6.3-1.9,9.6-2.4
			c0.1,0.2,0.3,0.5,0.4,0.7c2.3,3.1,4.6,6.2,6.4,9.6c-4.2,2.7-8.2,5.6-12.2,8.6c-3.4,2.6-0.1,8.6,3.4,5.9c4.6-3.5,9.3-6.9,14.3-9.9
			c0.3,0,0.5,0,0.8,0c1.8,2.1,4,3.8,6.9,4.6c4.6,1.3,9.4-0.9,13.1-3.4C50.4,33.2,47,27.3,43.3,29.8z M28.3,20.2
			c-1.3-2-2.7-3.9-4.2-5.8c-0.2-0.3-0.4-0.5-0.6-0.7c0.3-0.4,0.8-0.7,1.2-0.9c0.1,0.6,0.3,1.3,0.7,1.9c1.2,1.9,2.4,3.8,3.5,5.7
			C28.7,20.2,28.5,20.2,28.3,20.2z"/>
		<circle class="st0" cx="13.6" cy="5.6" r="5.6"/>
	</g>
</g>
<g>
</g>
<g>
</g>
<g>
</g>
<g>
</g>
<g>
</g>
<g>
</g>
</svg>
