<?xml version="1.0" standalone="no"?>
<!DOCTYPE svg PUBLIC "-//W3C//DTD SVG 1.1//EN" "http://www.w3.org/Graphics/SVG/1.1/DTD/svg11.dtd" >
<svg xmlns="http://www.w3.org/2000/svg">
<metadata></metadata>
<defs>
<font id="open_sanssemibold" horiz-adv-x="584" >
<font-face units-per-em="1024" ascent="819" descent="-205" />
<missing-glyph horiz-adv-x="266" />
<glyph horiz-adv-x="1024" />
<glyph horiz-adv-x="1024" />
<glyph unicode="&#xd;" horiz-adv-x="522" />
<glyph unicode=" "  horiz-adv-x="266" />
<glyph unicode="&#x09;" horiz-adv-x="266" />
<glyph unicode="&#xa0;" horiz-adv-x="266" />
<glyph unicode="!" horiz-adv-x="282" d="M66 62q0 37 20 56.5t56 19.5t54.5 -20t18.5 -56t-19.5 -56t-53.5 -20q-36 0 -56 19.5t-20 56.5zM72 731h139l-25 -509h-88z" />
<glyph unicode="&#x22;" horiz-adv-x="446" d="M66 731h116l-20 -264h-75zM264 731h116l-20 -264h-76z" />
<glyph unicode="#" horiz-adv-x="661" d="M24 209v84h141l29 142h-132v84h146l40 211h90l-40 -211h126l40 211h87l-40 -211h126v-84h-143l-27 -142h135v-84h-152l-40 -209h-88l40 209h-124l-40 -209h-88l38 209h-124zM253 293h125l28 142h-124z" />
<glyph unicode="$" d="M56 84v106q43 -21 100.5 -35.5t102.5 -14.5v186l-42 16q-82 32 -119 76q-38 44 -38 108q0 69 53.5 113.5t145.5 53.5v84h67v-83q102 -4 192 -40l-36 -92q-78 31 -156 37v-182l38 -15q95 -36 131.5 -77t36.5 -99q0 -72 -53 -119t-153 -58v-109h-67v106q-123 2 -203 38z M177 526q0 -28 17.5 -47t64.5 -37v155q-40 -6 -61 -24.5t-21 -46.5zM326 144q88 14 88 75q0 29 -20 48t-68 36v-159z" />
<glyph unicode="%" horiz-adv-x="882" d="M42 513q0 229 160 229q78 0 120 -59.5t42 -169.5q0 -115 -41 -173t-121 -58q-76 0 -118 60t-42 171zM140 512q0 -74 14 -111t48 -37q66 0 66 148t-66 148q-33 0 -47.5 -37t-14.5 -111zM190 0l405 731h97l-406 -731h-96zM518 220q0 228 160 228q77 0 119.5 -59t42.5 -169 q0 -115 -41 -172.5t-121 -57.5q-76 0 -118 59t-42 171zM616 220q0 -74 14.5 -111t47.5 -37q66 0 66 148q0 146 -66 146q-33 0 -47.5 -36t-14.5 -110z" />
<glyph unicode="&#x26;" horiz-adv-x="758" d="M48 194q0 66 32 114t116 96q-48 56 -65 94t-17 80q0 76 54 120t146 44q88 0 138.5 -43t50.5 -115q0 -57 -33.5 -103.5t-113.5 -93.5l174 -167q40 54 67 157h121q-35 -141 -112 -231l150 -146h-151l-75 72q-51 -41 -108.5 -61.5t-127.5 -20.5q-115 0 -180.5 55t-65.5 149z M172 202q0 -49 35 -80t93 -31q92 -1 156 53l-191 189q-53 -34 -73 -63.5t-20 -67.5zM226 574q0 -32 16.5 -60t46.5 -60q56 32 79 60t23 62q0 32 -21.5 52t-57.5 20q-40 0 -63 -20t-23 -54z" />
<glyph unicode="'" horiz-adv-x="249" d="M66 731h116l-20 -264h-75z" />
<glyph unicode="(" horiz-adv-x="324" d="M41 280q0 132 38.5 248t112.5 203h102q-70 -94 -107 -210.5t-37 -238.5t37 -237t106 -207h-101q-74 85 -112.5 198.5t-38.5 243.5z" />
<glyph unicode=")" horiz-adv-x="324" d="M30 731h103q74 -88 112.5 -203.5t38.5 -247.5t-39 -245t-112 -197h-101q69 94 105.5 208t36.5 236t-37 238t-107 211z" />
<glyph unicode="*" horiz-adv-x="561" d="M37 532l17 109l188 -54l-20 191h114l-20 -191l192 54l14 -109l-180 -14l118 -156l-100 -53l-82 169l-75 -169l-103 53l116 156z" />
<glyph unicode="+" d="M48 316v90h199v204h90v-204h199v-90h-199v-202h-90v202h-199z" />
<glyph unicode="," horiz-adv-x="273" d="M32 -132q34 135 51 251h115l8 -11q-24 -93 -88 -240h-86z" />
<glyph unicode="-" horiz-adv-x="329" d="M36 224v100h257v-100h-257z" />
<glyph unicode="." horiz-adv-x="281" d="M66 62q0 36 19 56t55 20t55.5 -20t19.5 -56t-19.5 -56t-55.5 -20t-55 20t-19 56z" />
<glyph unicode="/" horiz-adv-x="399" d="M8 0l272 731h111l-272 -731h-111z" />
<glyph unicode="0" d="M44 366q0 194 61 285t187 91q122 0 185 -95.5t63 -280.5q0 -190 -61 -283t-187 -93q-122 0 -185 96t-63 280zM163 366q0 -150 30.5 -214t98.5 -64t99 65t31 213q0 147 -31 212.5t-99 65.5t-98.5 -64t-30.5 -214z" />
<glyph unicode="1" d="M77 562l215 169h98v-731h-118v472q0 84 4 134q-12 -12 -28 -26t-112 -92z" />
<glyph unicode="2" d="M45 0v89l189 189q84 86 111 122t39 67t12 67q0 50 -30 78q-30 29 -82 29q-42 0 -81 -15.5t-91 -55.5l-63 77q61 52 118.5 73.5t122.5 21.5q102 0 163.5 -53.5t61.5 -143.5q0 -50 -17.5 -94.5t-54.5 -91.5t-123 -127l-126 -124v-4h346v-104h-495z" />
<glyph unicode="3" d="M43 30v104q46 -23 98.5 -35.5t100.5 -12.5q85 0 126.5 31.5t41.5 97.5q0 58 -46 85.5t-146 27.5h-64v96h65q175 0 175 121q0 47 -30 73q-30 25 -90 25q-42 0 -80 -11q-40 -12 -92 -46l-57 82q99 74 233 74q110 0 172.5 -47.5t62.5 -131.5q0 -70 -40.5 -116t-114.5 -62v-4 q88 -11 132 -55t44 -116q0 -106 -74 -163t-212 -57q-122 0 -205 40z" />
<glyph unicode="4" d="M20 160v90l334 483h114v-476h98v-97h-98v-160h-114v160h-334zM129 257h225v183q0 98 4 161h-4q-14 -33 -44 -80z" />
<glyph unicode="5" d="M58 30v106q40 -23 93 -35.5t98 -12.5q80 0 121 36q42 36 42 104q0 130 -168 130q-24 0 -58 -4.5t-60 -10.5l-52 31l28 357h380v-105h-277l-17 -180q18 3 43.5 6.5t61.5 3.5q110 0 174.5 -58t64.5 -160q0 -117 -73 -182.5t-208 -65.5q-123 0 -193 40z" />
<glyph unicode="6" d="M47 312q-1 428 349 428q56 0 94 -8v-98q-38 11 -88 11q-118 0 -177 -63t-64 -202h6q24 40 66.5 62.5t99.5 22.5q100 0 155 -61q56 -62 56 -166q0 -115 -64.5 -181.5t-175.5 -66.5q-78 0 -136 38t-89.5 110t-31.5 174zM166 254q0 -70 38 -118.5t98 -48.5t93 39 q33 40 33 112q0 63 -31 98.5t-92 35.5q-38 0 -70 -16t-50.5 -44t-18.5 -58z" />
<glyph unicode="7" d="M37 626v104h505v-82l-287 -648h-127l289 626h-380z" />
<glyph unicode="8" d="M44 186q0 61 34 109.5t112 86.5q-67 40 -96 84q-28 44 -28 100q0 80 63 127t163 47q104 0 164.5 -47.5t60.5 -127.5q0 -112 -135 -179q86 -43 122 -90.5t36 -105.5q0 -90 -66 -145t-180 -55q-119 0 -184.5 51t-65.5 145zM156 190q0 -52 37 -81t99 -29q64 0 100 30t36 80 q0 40 -33 74t-100 62l-15 7q-66 -29 -95 -63.5t-29 -79.5zM180 558q0 -26 11 -46.5t32 -37t71 -40.5q60 26 85 55.5t25 68.5q0 42 -31 67t-82 25q-50 0 -80.5 -25t-30.5 -67z" />
<glyph unicode="9" d="M43 490q0 114 64.5 182t174.5 68q78 0 136 -38t90 -110t32 -173q0 -216 -87 -322.5t-263 -106.5q-66 0 -95 8v98q43 -12 89 -12q119 0 177.5 64t64.5 201h-6q-30 -45 -71.5 -65t-97.5 -20q-97 0 -153 60q-55 60 -55 166zM158 492q0 -62 30 -98t92 -36q60 0 100.5 35 t40.5 83q0 44 -17.5 83t-48.5 61.5t-71 22.5q-61 0 -93.5 -39.5t-32.5 -111.5z" />
<glyph unicode=":" horiz-adv-x="281" d="M66 62q0 36 19 56t55 20t55.5 -20t19.5 -56t-19.5 -56t-55.5 -20t-55 20t-19 56zM66 490q0 76 74 75q38 0 56 -20q19 -19 19 -55t-19.5 -57t-55.5 -21t-55 21t-19 57z" />
<glyph unicode=";" horiz-adv-x="284" d="M32 -132q34 135 51 251h115l8 -11q-24 -93 -88 -240h-86zM66 490q0 76 74 75q38 0 56 -20q18 -19 18 -55t-19 -57t-55 -21t-55 21t-19 57z" />
<glyph unicode="&#x3c;" d="M48 326v60l488 244v-98l-366 -172l366 -151v-99z" />
<glyph unicode="=" d="M51 216v89h481v-89h-481zM51 416v89h481v-89h-481z" />
<glyph unicode="&#x3e;" d="M48 110v99l366 151l-366 172v98l488 -244v-60z" />
<glyph unicode="?" horiz-adv-x="464" d="M8 685q102 57 218 57q98 0 155 -48t57 -133q0 -38 -11 -67t-33 -55.5t-76 -68.5q-46 -36 -62 -60q-16 -26 -16 -66v-22h-98v32q0 55 20 91.5t70 75.5q60 47 77 73t17 62q0 42 -28 64.5t-81 22.5q-48 0 -88.5 -13.5t-78.5 -32.5zM121 62q-1 76 73 76q36 0 55 -20t19 -56 t-19 -56t-55 -20t-54.5 20t-18.5 56z" />
<glyph unicode="@" horiz-adv-x="919" d="M56 293q0 130 56 232t155 156t225 54q108 0 193 -45t131.5 -128t46.5 -192q0 -72 -22.5 -131t-63.5 -92t-94 -33q-40 0 -68.5 21t-38.5 57h-6q-24 -39 -60.5 -58.5t-81.5 -19.5q-82 0 -128.5 52t-46.5 142q0 103 62 168q63 64 167 64q38 0 84 -7t82 -19l-11 -232v-12 q0 -80 52 -80q40 0 63 51t23 129q0 86 -35 151t-99.5 100t-148.5 35q-106 0 -185 -44t-120 -126t-41 -190q0 -145 77 -223t223 -78q110 0 230 45v-82q-104 -43 -228 -43q-185 0 -288.5 99.5t-103.5 278.5zM349 306q-1 -116 91 -116q96 0 106 146l6 120q-32 8 -68 8 q-64 0 -99.5 -42.5t-35.5 -115.5z" />
<glyph unicode="A" horiz-adv-x="677" d="M0 0l274 734h130l273 -734h-127l-73 203h-279l-72 -203h-126zM232 306h214l-69 199q-8 20 -21 63t-18 63q-14 -63 -40 -135z" />
<glyph unicode="B" horiz-adv-x="676" d="M96 0v731h218q151 0 218 -44t67 -139q0 -64 -33 -106.5t-95 -53.5v-5q77 -14 113 -57t36 -116q0 -98 -68 -154q-70 -56 -192 -56h-264zM216 100h127q75 0 113 29t38 91q0 57 -39 84.5t-118 27.5h-121v-232zM216 429h115q75 0 109.5 23.5t34.5 81.5q0 52 -37.5 74.5 t-117.5 22.5h-104v-202z" />
<glyph unicode="C" horiz-adv-x="649" d="M60 366q0 114 42 199t121 131t185 46q112 0 208 -48l-44 -99q-37 18 -77.5 31t-86.5 13q-103 0 -162 -73q-60 -74 -60 -202q0 -134 57 -203t165 -69q46 0 89.5 9t90.5 24v-103q-86 -32 -195 -32q-160 0 -246.5 97t-86.5 279z" />
<glyph unicode="D" horiz-adv-x="751" d="M96 0v731h226q174 0 271.5 -94.5t97.5 -264.5q0 -181 -100.5 -276.5t-289.5 -95.5h-205zM216 100h85q264 0 264 268q1 262 -245 263h-104v-531z" />
<glyph unicode="E" horiz-adv-x="571" d="M96 0v731h414v-101h-294v-199h276v-100h-276v-229h294v-102h-414z" />
<glyph unicode="F" horiz-adv-x="545" d="M96 0v731h413v-101h-294v-228h275v-102h-275v-300h-119z" />
<glyph unicode="G" horiz-adv-x="743" d="M60 366q0 176 102 276t280 100q114 0 216 -44l-42 -100q-90 41 -178 41q-117 0 -184.5 -73.5t-67.5 -201.5q0 -134 61 -203.5t176 -69.5q58 1 124 15v188h-151v102h268v-366q-66 -22 -126 -31q-62 -9 -132 -9q-166 0 -256 98t-90 278z" />
<glyph unicode="H" horiz-adv-x="769" d="M96 0v731h120v-299h337v299h120v-731h-120v330h-337v-330h-120z" />
<glyph unicode="I" horiz-adv-x="312" d="M96 0v731h120v-731h-120z" />
<glyph unicode="J" horiz-adv-x="306" d="M-78 -91q42 -11 73 -11q98 0 98 124v709h120v-705q0 -112 -53.5 -171t-155.5 -59q-49 0 -82 12v101z" />
<glyph unicode="K" horiz-adv-x="654" d="M96 0v731h120v-349q50 60 98 116l197 233h136q-193 -225 -275 -321l282 -410h-138l-230 331l-70 -57v-274h-120z" />
<glyph unicode="L" horiz-adv-x="555" d="M96 0v731h120v-629h310v-102h-430z" />
<glyph unicode="M" horiz-adv-x="945" d="M96 0v731h169l203 -581h3l209 581h169v-731h-115v362q0 54 3 142t5 106h-4l-220 -610h-106l-212 610h-4q8 -136 9 -254v-356h-109z" />
<glyph unicode="N" horiz-adv-x="802" d="M96 0v731h146l358 -579h3q-1 12 -4 84t-3 112v383h110v-731h-147l-359 582h-4l2 -32q7 -93 7 -170v-380h-109z" />
<glyph unicode="O" horiz-adv-x="806" d="M60 368q0 181 90 278q88 96 254 96q163 0 252.5 -98.5t89.5 -277.5q0 -178 -90 -277q-88 -99 -252 -99q-166 0 -255 98t-89 280zM188 366q0 -135 54 -204.5t162 -69.5q106 0 160 69t54 205q0 134 -54 204t-160 70q-108 0 -162 -70t-54 -204z" />
<glyph unicode="P" horiz-adv-x="630" d="M96 0v731h211q137 0 205 -56t68 -165q0 -114 -75 -175t-213 -61h-76v-274h-120zM216 374h64q92 0 135 32t43 100q0 63 -39 94t-120 31h-83v-257z" />
<glyph unicode="Q" horiz-adv-x="806" d="M60 368q0 181 90 278q88 96 254 96q163 0 252.5 -98.5t89.5 -277.5q0 -133 -51 -223.5t-148 -128.5l175 -188h-161l-138 164h-19q-166 0 -255 98t-89 280zM188 366q0 -135 54 -204.5t162 -69.5q106 0 160 69t54 205q0 134 -54 204t-160 70q-108 0 -162 -70t-54 -204z" />
<glyph unicode="R" horiz-adv-x="654" d="M96 0v731h207q142 0 209.5 -53t67.5 -160q0 -136 -142 -194l207 -324h-136l-175 292h-118v-292h-120zM216 391h83q84 0 121.5 31t37.5 92q0 62 -41 89t-122 27h-79v-239z" />
<glyph unicode="S" horiz-adv-x="563" d="M50 28v114q50 -24 106 -37.5t105 -13.5q71 0 105 27q34 26 34 72q0 41 -31 69.5t-129 68.5q-100 40 -141 92t-41 125q0 92 65 144.5t175 52.5q105 0 209 -46l-38 -98q-98 41 -174 41q-58 0 -88 -25.5t-30 -66.5q0 -28 12 -48.5t39.5 -38.5t99.5 -48q80 -34 117.5 -62.5 t55 -65t17.5 -86.5q0 -98 -70.5 -153t-194.5 -55t-203 38z" />
<glyph unicode="T" horiz-adv-x="579" d="M14 628v103h550v-103h-215v-628h-119v628h-216z" />
<glyph unicode="U" horiz-adv-x="760" d="M90 260v471h120v-463q0 -90 42 -133t129 -43q169 0 169 178v461h120v-473q0 -81 -35 -141.5t-101 -93.5t-157 -33q-136 0 -211.5 72t-75.5 198z" />
<glyph unicode="V" horiz-adv-x="637" d="M0 731h123l153 -455q12 -32 25 -83t17 -77q6 38 20 88t22 74l153 453h124l-256 -731h-126z" />
<glyph unicode="W" horiz-adv-x="968" d="M6 731h122l104 -426q24 -102 36 -181q6 42 16.5 95t19.5 85l119 427h119l122 -429q18 -60 36 -178q8 72 36 182l104 425h122l-191 -731h-130l-124 436q-8 28 -20 82q-13 54 -15 75q-5 -32 -16 -83q-10 -51 -18 -76l-122 -434h-130l-94 366z" />
<glyph unicode="X" horiz-adv-x="637" d="M2 0l242 379l-226 352h132l170 -277l168 277h130l-229 -354l246 -377h-137l-184 299l-184 -299h-128z" />
<glyph unicode="Y" horiz-adv-x="606" d="M0 731h130l173 -333l173 333h130l-244 -447v-284h-120v280z" />
<glyph unicode="Z" horiz-adv-x="589" d="M33 0v83l369 545h-359v103h503v-84l-370 -545h380v-102h-523z" />
<glyph unicode="[" horiz-adv-x="338" d="M77 -162v893h235v-88h-128v-717h128v-88h-235z" />
<glyph unicode="\" horiz-adv-x="399" d="M8 731h111l272 -731h-111z" />
<glyph unicode="]" horiz-adv-x="338" d="M26 -74h128v717h-128v88h234v-893h-234v88z" />
<glyph unicode="^" horiz-adv-x="550" d="M14 268l218 467h61l243 -467h-98l-174 346l-154 -346h-96z" />
<glyph unicode="_" horiz-adv-x="439" d="M-2 -92h444v-68h-444v68z" />
<glyph unicode="`" horiz-adv-x="606" d="M181 774v10h137q19 -35 51.5 -80.5t54.5 -70.5v-13h-79q-34 26 -87 75.5t-77 78.5z" />
<glyph unicode="a" horiz-adv-x="594" d="M45 158q0 86 63.5 129.5t193.5 47.5l96 3v30q0 53 -25 79t-77 26q-42 0 -81 -12.5t-75 -29.5l-38 84q45 24 98.5 36t100.5 12q106 0 159 -46q54 -47 54 -145v-372h-84l-24 77h-4q-40 -50 -80 -68.5t-104 -18.5q-82 0 -127.5 44t-45.5 124zM167 158q0 -37 22 -57.5 t66 -20.5q64 0 102.5 36t38.5 100v48l-70 -3q-83 -3 -121 -28t-38 -75z" />
<glyph unicode="b" horiz-adv-x="638" d="M84 0v778h118v-185q0 -20 -2 -60.5t-4 -52.5h6q56 82 164 83q104 0 162 -75q58 -74 58 -210t-59 -212t-163 -76t-162 76h-8l-22 -66h-88zM202 278q0 -101 32 -146.5t104 -45.5q62 0 94 50q33 48 33 142q0 188 -129 189q-71 0 -102.5 -41.5t-31.5 -139.5v-8z" />
<glyph unicode="c" horiz-adv-x="507" d="M51 274q0 140 68.5 214.5t196.5 74.5q88 -1 158 -33l-36 -94q-74 29 -122 29q-144 -1 -144 -191q0 -93 36 -139.5t104 -46.5q78 0 149 39v-103q-32 -18 -67.5 -26t-86.5 -8q-126 0 -191 73t-65 211z" />
<glyph unicode="d" horiz-adv-x="638" d="M51 276q0 136 58.5 211.5t162.5 75.5q108 -1 166 -81h6q-8 60 -8 94v202h118v-778h-92l-20 72h-6q-57 -82 -166 -82q-104 0 -161.5 75t-57.5 211zM172 274q0 -92 32.5 -140.5t97.5 -48.5q72 0 105 40.5t35 132.5v16q0 104 -34 148.5t-107 44.5q-62 0 -95.5 -50.5 t-33.5 -142.5z" />
<glyph unicode="e" horiz-adv-x="590" d="M51 272q0 136 67.5 213.5t185.5 77.5q110 0 173 -66.5t63 -182.5v-64h-368q2 -80 43 -123.5t116 -43.5q49 0 91 9.5t91 30.5v-95q-43 -20 -87 -29t-100 -9q-129 0 -202 75t-73 207zM174 335h251q-1 68 -33 103.5t-88 35.5t-90 -35.5t-40 -103.5z" />
<glyph unicode="f" horiz-adv-x="371" d="M18 464v55l90 36v36q0 98 46 145.5t141 47.5q62 0 122 -21l-31 -89q-44 14 -83 14q-40 0 -58.5 -25t-18.5 -74v-36h136v-89h-136v-464h-118v464h-90z" />
<glyph unicode="g" horiz-adv-x="569" d="M12 -92q0 51 32 85.5t90 48.5q-24 10 -39 32t-15 47q0 31 18 53q18 21 52 42q-43 18 -70 60t-27 98q0 90 56.5 139.5t162.5 49.5q24 0 49 -3.5t39 -6.5h191v-65l-95 -17q13 -18 21.5 -43.5t8.5 -53.5q0 -86 -59 -135t-162 -49q-26 0 -48 4q-38 -24 -38 -54 q0 -19 17.5 -28.5t65.5 -9.5h96q92 0 139.5 -39t47.5 -113q0 -94 -77.5 -145t-223.5 -51q-113 0 -172.5 40t-59.5 114zM116 -86q0 -38 34.5 -58.5t96.5 -20.5q96 0 143 27.5t47 73.5q0 36 -25.5 51t-95.5 15h-90q-50 0 -80 -24t-30 -64zM167 374q0 -52 26.5 -80t76.5 -28 q102 0 102 109q0 54 -25 83.5t-77 29.5q-51 0 -77 -29t-26 -85z" />
<glyph unicode="h" horiz-adv-x="650" d="M84 0v778h118v-198q0 -48 -6 -101h7q24 40 66.5 62t100.5 22q200 -1 200 -203v-360h-118v340q0 64 -25.5 95.5t-81.5 31.5q-74 0 -108.5 -44.5t-34.5 -148.5v-274h-118z" />
<glyph unicode="i" horiz-adv-x="285" d="M77 700q0 32 17.5 48.5t49.5 16.5q31 0 48 -17q17 -16 17 -48q0 -30 -17.5 -47.5t-47.5 -17.5q-32 0 -49.5 17.5t-17.5 47.5zM84 0v553h118v-553h-118z" />
<glyph unicode="j" horiz-adv-x="285" d="M-60 -140q34 -10 69 -10q75 0 75 86v617h118v-625q0 -86 -45 -130t-129 -44q-52 0 -88 12v94zM77 700q0 32 17.5 48.5t49.5 16.5q31 0 48 -17q17 -16 17 -48q0 -30 -17.5 -47.5t-47.5 -17.5q-32 0 -49.5 17.5t-17.5 47.5z" />
<glyph unicode="k" horiz-adv-x="585" d="M84 0v778h116v-380l-6 -106h4l66 83l167 178h135l-222 -237l236 -316h-138l-177 242l-65 -52v-190h-116z" />
<glyph unicode="l" horiz-adv-x="285" d="M84 0v778h118v-778h-118z" />
<glyph unicode="m" horiz-adv-x="979" d="M84 0v553h92l16 -73h6q23 40 67 62q45 21 97 21q128 0 168 -87h8q24 41 69 64t103 23q99 0 144 -50q45 -51 45 -153v-360h-117v341q0 64 -24.5 95t-75.5 31q-68 0 -100 -42.5t-32 -131.5v-293h-118v341q0 64 -24 95t-75 31q-68 0 -99.5 -44.5t-31.5 -146.5v-276h-118z " />
<glyph unicode="n" horiz-adv-x="650" d="M84 0v553h92l16 -73h6q25 40 71.5 61.5t102.5 21.5q198 -1 198 -203v-360h-118v340q0 64 -25.5 95.5t-81.5 31.5q-74 0 -109 -44q-34 -43 -34 -147v-276h-118z" />
<glyph unicode="o" horiz-adv-x="625" d="M51 278q0 134 69 210q68 75 194 75q120 0 190 -77t70 -208q0 -136 -69 -212t-193 -76q-78 0 -137.5 35t-91.5 101t-32 152zM172 278q0 -192 142 -192q140 0 140 192q0 189 -141 189h-1q-74 0 -107 -48.5t-33 -140.5z" />
<glyph unicode="p" horiz-adv-x="638" d="M84 -246v799h95q5 -16 17 -74h6q54 84 164 84q104 0 162 -75q58 -74 58 -210t-59 -212t-163 -76t-162 76h-8q8 -70 8 -86v-226h-118zM202 278q0 -101 32 -146.5t104 -45.5q61 0 94 50t33 142q0 93 -32.5 141t-96.5 48q-70 0 -102 -41t-32 -131v-17z" />
<glyph unicode="q" horiz-adv-x="638" d="M51 276q0 135 59 211q58 76 162 76q52 0 94 -19q42 -20 74 -64h4l12 73h98v-799h-118v234q0 22 2 47t4 37h-7q-51 -82 -165 -82q-102 0 -160.5 75t-58.5 211zM172 274q0 -190 131 -190q74 0 106.5 43t32.5 129v18q0 102 -33.5 147.5t-107.5 45.5q-63 0 -96 -50 q-33 -49 -33 -143z" />
<glyph unicode="r" horiz-adv-x="441" d="M84 0v553h92l16 -97h6q28 50 71.5 78.5t94.5 28.5q36 0 59 -5l-11 -110q-24 6 -52 6q-70 0 -114 -46t-44 -119v-289h-118z" />
<glyph unicode="s" horiz-adv-x="498" d="M49 414q0 71 57.5 110t155.5 39h5q95 0 179 -39l-38 -89q-90 37 -150 37q-93 0 -93 -53q0 -26 25 -44q24 -17 105 -49q68 -26 99.5 -48.5t46.5 -51t15 -68.5q0 -81 -59 -124.5t-169 -43.5t-178 34v101q98 -45 182 -45q108 0 108 66q0 21 -12 34.5t-39.5 28.5t-76.5 35 q-96 37 -129.5 73.5t-33.5 96.5z" />
<glyph unicode="t" horiz-adv-x="402" d="M20 464v52l80 43l40 117h73v-123h157v-89h-157v-296q0 -42 21.5 -62.5t55.5 -20.5h6l80 13v-88q-20 -8 -50.5 -14t-63.5 -6q-167 0 -167 176v298h-75z" />
<glyph unicode="u" horiz-adv-x="650" d="M79 192v361h119v-341q0 -64 26 -95.5t81 -31.5q74 0 108.5 44.5t34.5 148.5v275h118v-553h-92l-16 72h-6q-24 -38 -70 -60t-104 -22q-100 0 -149.5 50t-49.5 152z" />
<glyph unicode="v" horiz-adv-x="548" d="M0 553h124l112 -321q30 -82 36 -132h4q4 36 34 132l113 321h125l-211 -553h-127z" />
<glyph unicode="w" horiz-adv-x="836" d="M10 553h120l70 -273q24 -100 34 -172h4q5 36 15 83q9 47 17 71l84 291h130l81 -291q8 -24 19 -75t13 -79h4q8 62 35 172l72 273h118l-156 -553h-132l-72 258q-13 40 -47 190h-5q-30 -135 -46 -191l-73 -257h-130z" />
<glyph unicode="x" horiz-adv-x="564" d="M12 0l195 282l-185 271h134l126 -193l126 193h134l-186 -271l195 -282h-133l-136 207l-136 -207h-134z" />
<glyph unicode="y" horiz-adv-x="549" d="M0 553h128l112 -313q26 -66 34 -126h4q4 28 16.5 67t127.5 372h127l-237 -627q-64 -172 -214 -172q-38 0 -76 8v94q26 -6 60 -6q86 0 120 98l20 52z" />
<glyph unicode="z" horiz-adv-x="489" d="M34 0v72l280 391h-263v90h395v-82l-274 -381h282v-90h-420z" />
<glyph unicode="{" horiz-adv-x="395" d="M22 236v96q68 0 101 23t33 69v156q0 78 54 114.5t162 36.5v-91q-57 -2 -82.5 -23t-25.5 -62v-149q0 -100 -114 -118v-6q114 -18 114 -119v-149q0 -41 26 -62q24 -22 82 -22v-92q-116 1 -166 39.5t-50 123.5v143q0 92 -134 92z" />
<glyph unicode="|" horiz-adv-x="564" d="M236 -240v1016h90v-1016h-90z" />
<glyph unicode="}" horiz-adv-x="380" d="M22 -70q48 0 74.5 19t26.5 65v130q0 60 27 94q26 34 88 44v6q-114 20 -115 118v149q0 41 -22.5 62t-78.5 23v91q112 0 161 -38.5t49 -124.5v-144q0 -50 32 -71t94 -21v-96q-62 0 -94 -21t-32 -71v-154q0 -78 -50 -114.5t-160 -37.5v92z" />
<glyph unicode="~" d="M48 286v95q50 54 125 54q33 0 62.5 -6.5t73.5 -24.5q66 -28 110 -28q26 0 57.5 15.5t59.5 44.5v-95q-52 -55 -124 -55q-32 0 -64 8q-32 6 -74 24q-64 28 -109 28q-25 0 -56 -15t-61 -45z" />
<glyph unicode="&#x401;" horiz-adv-x="571" d="M96 0v731h414v-101h-294v-199h276v-100h-276v-229h294v-102h-414zM151 869q0 31 17 44.5t41 13.5q26 0 42 -16q16 -14 16 -42q0 -26 -16 -42.5t-42 -16.5q-24 0 -41 14.5t-17 44.5zM348 869q0 31 16.5 44.5t40.5 13.5q26 0 42 -16q17 -14 17 -42q0 -27 -16.5 -43 t-42.5 -16q-24 0 -40.5 14.5t-16.5 44.5z" />
<glyph unicode="&#x410;" horiz-adv-x="677" d="M0 0l274 734h130l273 -734h-127l-73 203h-279l-72 -203h-126zM232 306h214l-69 199q-8 20 -21 63t-18 63q-14 -63 -40 -135z" />
<glyph unicode="&#x411;" horiz-adv-x="640" d="M96 0v731h446v-103h-326v-194h87q288 0 288 -214q0 -220 -282 -220h-213zM216 100h86q86 0 126 28.5t40 91.5q0 60 -40 87t-140 27h-72v-234z" />
<glyph unicode="&#x412;" horiz-adv-x="676" d="M96 0v731h218q151 0 218 -44t67 -139q0 -64 -33 -106.5t-95 -53.5v-5q77 -14 113 -57t36 -116q0 -98 -68 -154q-70 -56 -192 -56h-264zM216 100h127q75 0 113 29t38 91q0 57 -39 84.5t-118 27.5h-121v-232zM216 429h115q75 0 109.5 23.5t34.5 81.5q0 52 -37.5 74.5 t-117.5 22.5h-104v-202z" />
<glyph unicode="&#x413;" horiz-adv-x="553" d="M96 0v731h434v-103h-314v-628h-120z" />
<glyph unicode="&#x414;" horiz-adv-x="740" d="M6 102h56q72 132 121.5 297.5t63.5 331.5h377v-629h95v-304h-115v202h-483v-202h-115v304zM188 102h317v526h-158q-11 -114 -56 -264t-103 -262z" />
<glyph unicode="&#x415;" horiz-adv-x="571" d="M96 0v731h414v-101h-294v-199h276v-100h-276v-229h294v-102h-414z" />
<glyph unicode="&#x416;" horiz-adv-x="914" d="M0 0l280 378l-268 353h128l260 -354v354h114v-354l260 354h128l-267 -353l279 -378h-132l-268 370v-370h-114v370l-267 -370h-133z" />
<glyph unicode="&#x417;" horiz-adv-x="628" d="M44 664q112 78 265 78q116 0 183.5 -50t67.5 -132q0 -72 -47 -117t-131 -58v-3q96 -12 146 -57t50 -118q0 -102 -80 -159q-80 -58 -220 -58q-146 0 -233 40v104q48 -23 108.5 -35.5t110.5 -12.5q192 0 192 126q0 58 -58 88q-56 31 -170 31h-88v96h82q218 1 218 117 q0 46 -37 73t-104 27q-53 0 -101 -14t-100 -48z" />
<glyph unicode="&#x418;" horiz-adv-x="811" d="M96 0v731h110v-380q0 -60 -3 -120.5t-5 -82.5h5l373 583h140v-731h-110v377q0 86 10 210h-4l-376 -587h-140z" />
<glyph unicode="&#x419;" horiz-adv-x="811" d="M96 0v731h110v-380q0 -60 -3 -120.5t-5 -82.5h5l373 583h140v-731h-110v377q0 86 10 210h-4l-376 -587h-140zM200 955h107q3 -36 13.5 -56t30.5 -28.5t62 -8.5q49 0 74.5 21.5t31.5 71.5h108q-8 -86 -60.5 -126t-156.5 -40q-106 0 -155 38q-50 38 -55 128z" />
<glyph unicode="&#x41a;" horiz-adv-x="657" d="M96 0v731h120v-354l296 354h131l-295 -353l310 -378h-141l-301 370v-370h-120z" />
<glyph unicode="&#x41b;" horiz-adv-x="741" d="M4 1v99q28 -12 56 -12q36 0 56 43t44 191t58 409h427v-731h-119v628h-208q-40 -320 -64 -435t-67 -161t-113 -44q-36 0 -70 13z" />
<glyph unicode="&#x41c;" horiz-adv-x="945" d="M96 0v731h169l203 -581h3l209 581h169v-731h-115v362q0 54 3 142t5 106h-4l-220 -610h-106l-212 610h-4q8 -136 9 -254v-356h-109z" />
<glyph unicode="&#x41d;" horiz-adv-x="769" d="M96 0v731h120v-299h337v299h120v-731h-120v330h-337v-330h-120z" />
<glyph unicode="&#x41e;" horiz-adv-x="806" d="M60 368q0 181 90 278q88 96 254 96q163 0 252.5 -98.5t89.5 -277.5q0 -178 -90 -277q-88 -99 -252 -99q-166 0 -255 98t-89 280zM188 366q0 -135 54 -204.5t162 -69.5q106 0 160 69t54 205q0 134 -54 204t-160 70q-108 0 -162 -70t-54 -204z" />
<glyph unicode="&#x41f;" horiz-adv-x="754" d="M96 0v731h562v-731h-120v628h-322v-628h-120z" />
<glyph unicode="&#x420;" horiz-adv-x="630" d="M96 0v731h211q137 0 205 -56t68 -165q0 -114 -75 -175t-213 -61h-76v-274h-120zM216 374h64q92 0 135 32t43 100q0 63 -39 94t-120 31h-83v-257z" />
<glyph unicode="&#x421;" horiz-adv-x="649" d="M60 366q0 114 42 199t121 131t185 46q112 0 208 -48l-44 -99q-37 18 -77.5 31t-86.5 13q-103 0 -162 -73q-60 -74 -60 -202q0 -134 57 -203t165 -69q46 0 89.5 9t90.5 24v-103q-86 -32 -195 -32q-160 0 -246.5 97t-86.5 279z" />
<glyph unicode="&#x422;" horiz-adv-x="579" d="M14 628v103h550v-103h-215v-628h-119v628h-216z" />
<glyph unicode="&#x423;" horiz-adv-x="652" d="M6 731h129l179 -367q24 -52 29 -69h5q3 13 15 41l165 395h124l-230 -520q-42 -96 -78 -138.5t-82 -62.5q-48 -20 -114 -20q-58 0 -107 15v107q49 -20 103 -19q46 0 76 22.5t56 80.5z" />
<glyph unicode="&#x424;" horiz-adv-x="849" d="M49 379q0 78 35 140t100.5 97.5t153.5 35.5h30v90h112v-90h31q88 0 153.5 -35t99.5 -97t34 -141q0 -82 -38 -146.5t-106 -97.5t-158 -33h-16v-112h-112v112h-17q-90 0 -157.5 33t-106 98.5t-38.5 145.5zM166 380q0 -85 50 -134q50 -48 142 -48h10v356h-25q-83 0 -130 -47 t-47 -127zM480 198h10q90 0 141 48t51 134q0 80 -47 127t-130 47h-25v-356z" />
<glyph unicode="&#x425;" horiz-adv-x="637" d="M2 0l242 379l-226 352h132l170 -277l168 277h130l-229 -354l246 -377h-137l-184 299l-184 -299h-128z" />
<glyph unicode="&#x426;" horiz-adv-x="777" d="M96 0v731h120v-629h322v629h120v-631h98v-302h-116v202h-544z" />
<glyph unicode="&#x427;" horiz-adv-x="728" d="M70 434v297h120v-269q0 -57 28 -85t92 -28q48 0 93 8.5t109 30.5v343h120v-731h-120v292q-68 -24 -120 -34q-52 -11 -106 -11q-104 0 -160 48.5t-56 138.5z" />
<glyph unicode="&#x428;" horiz-adv-x="1080" d="M96 0v731h120v-629h263v629h121v-629h263v629h121v-731h-888z" />
<glyph unicode="&#x429;" horiz-adv-x="1099" d="M96 0v731h120v-629h259v629h121v-629h260v629h120v-631h97v-302h-115v202h-862z" />
<glyph unicode="&#x42a;" horiz-adv-x="724" d="M4 628v103h296v-297h91q138 0 211 -55t73 -159q0 -108 -70.5 -164t-208.5 -56h-216v628h-176zM300 100h89q80 0 121.5 28.5t41.5 91.5q0 59 -40 86.5t-136 27.5h-76v-234z" />
<glyph unicode="&#x42b;" horiz-adv-x="900" d="M96 0v731h120v-297h85q137 0 209 -55t72 -159q0 -108 -70.5 -164t-206.5 -56h-209zM216 100h82q80 0 121 28.5t41 91.5q0 60 -39 86.5t-133 26.5h-72v-233zM684 0v731h120v-731h-120z" />
<glyph unicode="&#x42c;" horiz-adv-x="655" d="M96 0v731h120v-297h104q139 0 212.5 -55t73.5 -159q0 -108 -72 -164t-210 -56h-228zM216 100h100q80 0 124 28.5t44 91.5q0 59 -42 86.5t-139 27.5h-87v-234z" />
<glyph unicode="&#x42d;" horiz-adv-x="661" d="M33 694q100 48 224 48q163 0 253 -98t90 -272q0 -184 -91 -283t-263 -99q-114 0 -204 32v103q50 -14 96 -23q46 -10 96 -10q115 0 175 59t64 175h-338v101h337q-7 100 -65 156t-152 56q-83 0 -179 -43z" />
<glyph unicode="&#x42e;" horiz-adv-x="1085" d="M96 0v731h120v-299h161q14 150 97 230q84 80 226 80q154 0 239 -99t85 -277q0 -179 -85 -277.5t-239 -98.5q-148 0 -232 89t-93 251h-159v-330h-120zM498 366q0 -136 51 -205t149 -69q100 0 150.5 70t50.5 204q0 136 -50.5 205t-148.5 69q-100 0 -151 -70t-51 -204z" />
<glyph unicode="&#x42f;" horiz-adv-x="665" d="M10 0l206 320q-140 48 -140 204q0 100 69.5 153.5t204.5 53.5h220v-731h-120v293h-122l-182 -293h-136zM198 517q0 -59 39 -92t121 -33h92v239h-96q-76 0 -116 -26.5t-40 -87.5z" />
<glyph unicode="&#x430;" horiz-adv-x="594" d="M45 158q0 86 63.5 129.5t193.5 47.5l96 3v30q0 53 -25 79t-77 26q-42 0 -81 -12.5t-75 -29.5l-38 84q45 24 98.5 36t100.5 12q106 0 159 -46q54 -47 54 -145v-372h-84l-24 77h-4q-40 -50 -80 -68.5t-104 -18.5q-82 0 -127.5 44t-45.5 124zM167 158q0 -37 22 -57.5 t66 -20.5q64 0 102.5 36t38.5 100v48l-70 -3q-83 -3 -121 -28t-38 -75z" />
<glyph unicode="&#x431;" horiz-adv-x="623" d="M52 332q0 185 63 284.5t199 127.5q104 22 239 42l17 -104q-164 -25 -240 -39q-78 -14 -113 -64.5t-41 -150.5h8q28 42 74 64.5t98 22.5q102 0 159 -64.5t57 -180.5q0 -134 -69 -207t-191 -73t-191 90t-69 252zM173 326q0 -118 37.5 -179t109.5 -61q130 0 130 172 q0 166 -118 166q-32 0 -63 -14t-56.5 -37t-39.5 -47z" />
<glyph unicode="&#x432;" horiz-adv-x="618" d="M84 0v553h263q217 1 217 -141q0 -98 -114 -119v-4q64 -8 98 -40.5t34 -85.5q0 -78 -60 -120.5t-174 -42.5h-264zM202 87h138q121 0 121 83q0 40 -31 57t-93 17h-135v-157zM202 331h124q59 0 89.5 15.5t30.5 55.5q0 33 -25.5 47.5t-76.5 14.5h-142v-133z" />
<glyph unicode="&#x433;" horiz-adv-x="464" d="M84 0v553h358v-92h-240v-461h-118z" />
<glyph unicode="&#x434;" horiz-adv-x="633" d="M18 91h44q59 84 94 204q36 120 42 258h336v-462h80v-287h-109v196h-379v-196h-108v287zM186 91h232v372h-119q-10 -103 -40 -203q-29 -100 -73 -169z" />
<glyph unicode="&#x435;" horiz-adv-x="590" d="M51 272q0 136 67.5 213.5t185.5 77.5q110 0 173 -66.5t63 -182.5v-64h-368q2 -80 43 -123.5t116 -43.5q49 0 91 9.5t91 30.5v-95q-43 -20 -87 -29t-100 -9q-129 0 -202 75t-73 207zM174 335h251q-1 68 -33 103.5t-88 35.5t-90 -35.5t-40 -103.5z" />
<glyph unicode="&#x436;" horiz-adv-x="823" d="M1 0l237 286l-218 267h124l212 -269v269h110v-269l213 269h124l-217 -267l236 -286h-129l-227 280v-280h-110v280l-226 -280h-129z" />
<glyph unicode="&#x437;" horiz-adv-x="531" d="M36 24v102q92 -43 190 -43q70 0 108 19.5t38 60.5q0 42 -38 61.5t-119 19.5h-67v88h58q80 0 118 18t38 54q0 68 -120 68q-80 0 -163 -36l-38 88q96 40 213 39q103 0 160 -37.5t57 -108.5q-1 -93 -107 -122v-4q66 -18 95 -51.5t29 -83.5q0 -76 -66 -121t-186 -45 q-130 0 -200 34z" />
<glyph unicode="&#x438;" horiz-adv-x="693" d="M84 0v553h112v-283q0 -50 -8 -146l278 429h144v-553h-114v278q0 23 3 74.5t5 75.5l-276 -428h-144z" />
<glyph unicode="&#x439;" horiz-adv-x="693" d="M84 0v553h112v-283q0 -50 -8 -146l278 429h144v-553h-114v278q0 23 3 74.5t5 75.5l-276 -428h-144zM133 786h107q3 -36 13.5 -56t30.5 -28.5t62 -8.5q49 0 74.5 21.5t31.5 71.5h108q-8 -86 -60.5 -126t-156.5 -40q-106 0 -155 38q-50 38 -55 128z" />
<glyph unicode="&#x43a;" horiz-adv-x="582" d="M84 0v553h118v-269l225 269h129l-228 -267l248 -286h-136l-238 280v-280h-118z" />
<glyph unicode="&#x43b;" horiz-adv-x="622" d="M4 2v92q18 -7 37 -7q51 0 80 114.5t46 351.5h371v-553h-118v461h-152q-14 -178 -38 -278t-62 -146t-100 -46q-38 0 -64 11z" />
<glyph unicode="&#x43c;" horiz-adv-x="808" d="M84 0v553h156l120 -293q16 -41 42 -148l6 24q20 74 36 115l124 302h156v-553h-108v446l-10 -30q-22 -80 -38 -118l-120 -298h-90l-120 300q-24 64 -46 146v-446h-108z" />
<glyph unicode="&#x43d;" horiz-adv-x="663" d="M84 0v553h118v-222h260v222h118v-553h-118v238h-260v-238h-118z" />
<glyph unicode="&#x43e;" horiz-adv-x="625" d="M51 278q0 134 69 210q68 75 194 75q120 0 190 -77t70 -208q0 -136 -69 -212t-193 -76q-78 0 -137.5 35t-91.5 101t-32 152zM172 278q0 -192 142 -192q140 0 140 192q0 190 -142 189q-74 0 -107 -48.5t-33 -140.5z" />
<glyph unicode="&#x43f;" horiz-adv-x="651" d="M84 0v553h484v-553h-118v460h-248v-460h-118z" />
<glyph unicode="&#x440;" horiz-adv-x="638" d="M84 -246v799h95q5 -16 17 -74h6q54 84 164 84q104 0 162 -75q58 -74 58 -210t-59 -212t-163 -76t-162 76h-8q8 -70 8 -86v-226h-118zM202 278q0 -101 32 -146.5t104 -45.5q61 0 94 50t33 142q0 93 -32.5 141t-96.5 48q-70 0 -102 -41t-32 -131v-17z" />
<glyph unicode="&#x441;" horiz-adv-x="507" d="M51 274q0 140 68.5 214.5t196.5 74.5q88 -1 158 -33l-36 -94q-74 29 -122 29q-144 -1 -144 -191q0 -93 36 -139.5t104 -46.5q78 0 149 39v-103q-32 -18 -67.5 -26t-86.5 -8q-126 0 -191 73t-65 211z" />
<glyph unicode="&#x442;" horiz-adv-x="522" d="M22 461v92h478v-92h-180v-461h-118v461h-180z" />
<glyph unicode="&#x443;" horiz-adv-x="549" d="M0 553h128l112 -313q26 -66 34 -126h4q4 28 16.5 67t127.5 372h127l-237 -627q-64 -172 -214 -172q-38 0 -76 8v94q26 -6 60 -6q86 0 120 98l20 52z" />
<glyph unicode="&#x444;" horiz-adv-x="782" d="M51 276q0 126 74.5 200t211.5 83v219h111v-219q133 -12 208 -86.5t75 -196.5q0 -124 -75.5 -198t-207.5 -84v-240h-112v240q-132 10 -208.5 85t-76.5 197zM173 276q0 -82 41 -132t123 -58v381q-82 -10 -123 -59.5t-41 -131.5zM448 86q82 10 122 59t40 131q0 81 -41 130.5 t-121 58.5v-379z" />
<glyph unicode="&#x445;" horiz-adv-x="564" d="M12 0l195 282l-185 271h134l126 -193l126 193h134l-186 -271l195 -282h-133l-136 207l-136 -207h-134z" />
<glyph unicode="&#x446;" horiz-adv-x="673" d="M84 0v553h118v-460h257v460h117v-462h80v-285h-110v194h-462z" />
<glyph unicode="&#x447;" horiz-adv-x="647" d="M70 346v207h118v-202q0 -85 88 -85q42 0 82 12q42 12 88 38v237h117v-553h-117v234q-48 -30 -94 -44t-99 -14q-86 0 -134.5 45t-48.5 125z" />
<glyph unicode="&#x448;" horiz-adv-x="951" d="M84 0v553h118v-460h215v460h117v-460h216v460h118v-553h-784z" />
<glyph unicode="&#x449;" horiz-adv-x="963" d="M84 0v553h118v-460h215v460h117v-460h216v460h118v-462h79v-285h-111v194h-752z" />
<glyph unicode="&#x44a;" horiz-adv-x="719" d="M10 461v92h294v-221h132q120 0 178.5 -40t58.5 -120q0 -84 -59 -128q-60 -44 -176 -44h-252v461h-176zM304 87h132q119 0 119 82q0 42 -30.5 58.5t-91.5 16.5h-129v-157z" />
<glyph unicode="&#x44b;" horiz-adv-x="829" d="M84 0v553h118v-221h112q116 0 171 -40t55 -120q0 -86 -58 -129q-56 -43 -168 -43h-230zM202 87h88q71 0 102.5 20t31.5 62t-31 58.5t-88 16.5h-103v-157zM628 0v553h118v-553h-118z" />
<glyph unicode="&#x44c;" horiz-adv-x="617" d="M84 0v553h118v-221h138q232 0 232 -160q0 -84 -59 -128t-173 -44h-256zM202 87h133q58 0 88.5 21t30.5 61q0 42 -32 58.5t-89 16.5h-131v-157z" />
<glyph unicode="&#x44d;" horiz-adv-x="514" d="M33 22v96q81 -35 155 -35q143 1 152 157h-244v86h244q-6 74 -40 109t-100 35q-50 0 -130 -28l-32 86q34 16 78 26q44 9 86 9q130 0 195 -72q65 -71 65 -211t-69.5 -215t-202.5 -75q-92 0 -157 32z" />
<glyph unicode="&#x44e;" horiz-adv-x="874" d="M84 0v553h118v-222h122q12 110 77 171t173 61q115 0 181.5 -77t66.5 -208q0 -136 -66 -212t-184 -76q-109 0 -173.5 64t-74.5 184h-122v-238h-118zM444 278q0 -94 30 -143t98 -49t99 48q31 50 31 144t-31 141.5t-99 47.5t-98 -47.5t-30 -141.5z" />
<glyph unicode="&#x44f;" horiz-adv-x="588" d="M9 0l154 226q-56 16 -88 57.5t-32 102.5q0 78 56 122.5t153 44.5h252v-553h-118v213h-112l-134 -213h-131zM158 385q0 -42 32 -63.5t86 -21.5h110v164h-128q-48 0 -74 -20.5t-26 -58.5z" />
<glyph unicode="&#x451;" horiz-adv-x="590" d="M51 272q0 136 67.5 213.5t185.5 77.5q110 0 173 -66.5t63 -182.5v-64h-368q2 -80 43 -123.5t116 -43.5q49 0 91 9.5t91 30.5v-95q-43 -20 -87 -29t-100 -9q-129 0 -202 75t-73 207zM148 700q0 31 17 44.5t41 13.5q26 0 42 -16q16 -14 16 -42q0 -26 -16 -42.5t-42 -16.5 q-24 0 -41 14.5t-17 44.5zM174 335h251q-1 68 -33 103.5t-88 35.5t-90 -35.5t-40 -103.5zM345 700q0 31 16.5 44.5t40.5 13.5q26 0 42 -16q17 -14 17 -42q0 -27 -16.5 -43t-42.5 -16q-24 0 -40.5 14.5t-16.5 44.5z" />
<glyph unicode="&#x2014;" horiz-adv-x="1024" d="M41 228v94h942v-94h-942z" />
<glyph unicode="&#xe000;" horiz-adv-x="552" d="M0 0v552h552v-552h-552z" />
</font>
</defs>
</svg>
