<?xml version="1.0" encoding="utf-8"?>
<!-- Generator: Adobe Illustrator 17.0.0, SVG Export Plug-In . SVG Version: 6.00 Build 0)  -->
<!DOCTYPE svg PUBLIC "-//W3C//DTD SVG 1.1//EN" "http://www.w3.org/Graphics/SVG/1.1/DTD/svg11.dtd">
<svg version="1.1" id="Layer_1" xmlns="http://www.w3.org/2000/svg" xmlns:xlink="http://www.w3.org/1999/xlink" x="0px" y="0px"
	 width="46.5px" height="34.9px" viewBox="0 0 46.5 34.9" style="enable-background:new 0 0 46.5 34.9;" xml:space="preserve">
<style type="text/css">
	.st0{fill:#FFFFFF;}
</style>
<path class="st0" d="M46.5,29.1c0,1-0.3,2-0.7,2.8L31.1,15.4L45.6,2.7c0.6,0.9,0.9,1.9,0.9,3.1V29.1z M23.2,18.4L43.5,0.7
	C42.6,0.3,41.7,0,40.7,0H5.8C4.8,0,3.9,0.3,3,0.7L23.2,18.4z M28.9,17.3l-4.7,4.1c-0.3,0.2-0.6,0.4-1,0.4s-0.7-0.1-1-0.4l-4.7-4.1
	L2.7,34c0.9,0.6,1.9,0.9,3.1,0.9h34.9c1.1,0,2.2-0.3,3.1-0.9L28.9,17.3z M0.9,2.7C0.3,3.6,0,4.7,0,5.8v23.2c0,1,0.3,2,0.7,2.8
	l14.7-16.4L0.9,2.7z"/>
<g>
</g>
<g>
</g>
<g>
</g>
<g>
</g>
<g>
</g>
<g>
</g>
</svg>
