<?xml version="1.0" encoding="utf-8"?>
<!-- Generator: Adobe Illustrator 17.0.0, SVG Export Plug-In . SVG Version: 6.00 Build 0)  -->
<!DOCTYPE svg PUBLIC "-//W3C//DTD SVG 1.1//EN" "http://www.w3.org/Graphics/SVG/1.1/DTD/svg11.dtd">
<svg version="1.1" id="Layer_1" xmlns="http://www.w3.org/2000/svg" xmlns:xlink="http://www.w3.org/1999/xlink" x="0px" y="0px"
	 width="23.2px" height="43px" viewBox="0 0 23.2 43" style="enable-background:new 0 0 23.2 43;" xml:space="preserve">
<style type="text/css">
	.st0{fill:#FFFFFF;}
</style>
<path class="st0" d="M22.4,0l-5.6,0C10.5,0,6.5,4.2,6.5,10.6v4.9H0.9c-0.5,0-0.9,0.4-0.9,0.9v7.1c0,0.5,0.4,0.9,0.9,0.9h5.6v17.8
	c0,0.5,0.4,0.9,0.9,0.9h7.3c0.5,0,0.9-0.4,0.9-0.9V24.3h6.6c0.5,0,0.9-0.4,0.9-0.9l0-7.1c0-0.2-0.1-0.5-0.3-0.6
	c-0.2-0.2-0.4-0.3-0.6-0.3h-6.6v-4.1c0-2,0.5-3,3.1-3l3.8,0c0.5,0,0.9-0.4,0.9-0.9V0.9C23.2,0.4,22.9,0,22.4,0z"/>
<g>
</g>
<g>
</g>
<g>
</g>
<g>
</g>
<g>
</g>
<g>
</g>
</svg>
