<?xml version="1.0" encoding="utf-8"?>
<!-- Generator: Adobe Illustrator 17.0.0, SVG Export Plug-In . SVG Version: 6.00 Build 0)  -->
<!DOCTYPE svg PUBLIC "-//W3C//DTD SVG 1.1//EN" "http://www.w3.org/Graphics/SVG/1.1/DTD/svg11.dtd">
<svg version="1.1" id="Layer_1" xmlns="http://www.w3.org/2000/svg" xmlns:xlink="http://www.w3.org/1999/xlink" x="0px" y="0px"
	 width="40.7px" height="33.1px" viewBox="0 0 40.7 33.1" style="enable-background:new 0 0 40.7 33.1;" xml:space="preserve">
<style type="text/css">
	.st0{fill:#FFFFFF;}
</style>
<path class="st0" d="M40.7,3.9c-1.5,0.7-3.1,1.1-4.8,1.3c1.7-1,3-2.7,3.7-4.6c-1.6,1-3.4,1.7-5.3,2C32.7,1,30.6,0,28.2,0
	c-4.6,0-8.3,3.7-8.3,8.3c0,0.7,0.1,1.3,0.2,1.9C13.1,9.9,7,6.6,2.8,1.5C2.1,2.8,1.7,4.2,1.7,5.7c0,2.9,1.5,5.5,3.7,6.9
	c-1.4,0-2.7-0.4-3.8-1v0.1c0,4,2.9,7.4,6.7,8.2c-0.7,0.2-1.4,0.3-2.2,0.3c-0.5,0-1.1-0.1-1.6-0.2c1.1,3.3,4.1,5.7,7.8,5.8
	C9.5,28.1,5.9,29.4,2,29.4c-0.7,0-1.3,0-2-0.1c3.7,2.4,8.1,3.8,12.8,3.8c15.4,0,23.7-12.7,23.7-23.7l0-1.1
	C38.2,7.1,39.6,5.6,40.7,3.9z"/>
<g>
</g>
<g>
</g>
<g>
</g>
<g>
</g>
<g>
</g>
<g>
</g>
</svg>
