<?xml version="1.0" encoding="utf-8"?>
<!-- Generator: Adobe Illustrator 17.0.0, SVG Export Plug-In . SVG Version: 6.00 Build 0)  -->
<!DOCTYPE svg PUBLIC "-//W3C//DTD SVG 1.1//EN" "http://www.w3.org/Graphics/SVG/1.1/DTD/svg11.dtd">
<svg version="1.1" id="Layer_1" xmlns="http://www.w3.org/2000/svg" xmlns:xlink="http://www.w3.org/1999/xlink" x="0px" y="0px"
	 width="50.5px" height="49.4px" viewBox="0 0 50.5 49.4" enable-background="new 0 0 50.5 49.4" xml:space="preserve">
<g>
	<g>
		<path fill="#FFFFFF" d="M49.1,6.1c-0.9-0.8-5.6-4.3-6.5-5.1c-0.9-0.8-2.3-1-3.2-1H11.1c-1,0-2.4,0.2-3.2,1C7,1.7,2.3,5.3,1.4,6.1
			C0.5,6.8-0.2,8,0,9.6c0.2,1.6,5.7,38.1,5.7,38.1c0.3,0.9,1.4,1.7,2.3,1.7h34.4c1,0,2-0.8,2.3-1.7c0,0,5.5-36.5,5.7-38.1
			S50,6.8,49.1,6.1z M25.3,31.6c-9.5,0-11.6-13.5-12-16.3h5.4c0.8,4.1,2.7,11,6.6,11s5.8-6.9,6.6-11h5.4
			C36.9,18.1,34.8,31.6,25.3,31.6z M4.6,10l6.5-6.8h28.4l6.5,6.8H4.6z"/>
	</g>
</g>
<g>
</g>
<g>
</g>
<g>
</g>
<g>
</g>
<g>
</g>
<g>
</g>
</svg>
