<?xml version="1.0" encoding="utf-8"?>
<!-- Generator: Adobe Illustrator 17.0.0, SVG Export Plug-In . SVG Version: 6.00 Build 0)  -->
<!DOCTYPE svg PUBLIC "-//W3C//DTD SVG 1.1//EN" "http://www.w3.org/Graphics/SVG/1.1/DTD/svg11.dtd">
<svg version="1.1" id="Layer_1" xmlns="http://www.w3.org/2000/svg" xmlns:xlink="http://www.w3.org/1999/xlink" x="0px" y="0px"
	 width="50.6px" height="49.4px" viewBox="0 0 50.6 49.4" enable-background="new 0 0 50.6 49.4" xml:space="preserve">
<g>
	<g>
		<path fill="#FFFFFF" d="M24.1,32.6c-0.3-0.1-1.9-1.8-0.9-5h0c2.7-2.8,5-7.4,5-11.9c0-6.9-4.8-10.5-10-10.5
			c-5.3,0-9.8,3.6-9.8,10.5c0,4.5,2.1,9.1,4.8,11.9c1.1,2.8-0.8,4.8-1.2,5c-5.5,2-12,5.7-12,9.3c0,1,0,0.4,0,1.4
			c0,5,9.5,6.1,18.2,6.1c8.8,0,18.1-1.1,18.1-6.1c0-1,0-0.4,0-1.4C36.3,38.2,29.8,34.5,24.1,32.6z"/>
	</g>
	<g>
		<path fill="#FFFFFF" d="M39.1,24.5c-0.2-0.1-1.8-0.5-0.8-3.5h0c2.5-2.7,4.3-7,4.3-11.2c0-6.5-4.1-9.9-9-9.9
			c-3.6,0-6.8,1.9-8.2,5.4c3,2.4,5,6.2,5,11.3c0,5.5-2.6,10.4-5.2,13.6c4.3,1.6,10.9,4.9,12.8,9.8c6.7-0.4,12.7-1.8,12.7-5.6
			c0-0.9,0-0.4,0-1.3C50.6,29.8,44.5,26.4,39.1,24.5z"/>
	</g>
</g>
<g>
</g>
<g>
</g>
<g>
</g>
<g>
</g>
<g>
</g>
<g>
</g>
</svg>
