<?xml version="1.0" encoding="utf-8"?>
<!-- Generator: Adobe Illustrator 17.0.0, SVG Export Plug-In . SVG Version: 6.00 Build 0)  -->
<!DOCTYPE svg PUBLIC "-//W3C//DTD SVG 1.1//EN" "http://www.w3.org/Graphics/SVG/1.1/DTD/svg11.dtd">
<svg version="1.1" id="Layer_1" xmlns="http://www.w3.org/2000/svg" xmlns:xlink="http://www.w3.org/1999/xlink" x="0px" y="0px"
	 width="34px" height="35px" viewBox="0 0 34 35" enable-background="new 0 0 34 35" xml:space="preserve">
<g>
	<g>
		<path fill="#FFFFFF" d="M30.7,0H3.3C1.5,0,0,1.4,0,3.2v20c0,1.1,0.6,2.2,1.5,2.8l13.6,8.5c1.1,0.7,2.4,0.7,3.4,0L32.4,26
			c1-0.6,1.6-1.6,1.6-2.8v-20C34,1.4,32.5,0,30.7,0z M25.5,13.8l-9.2,9.2c-0.8,0.8-2.1,0.8-2.9,0l-4.5-4.5c-0.4-0.4-0.6-0.9-0.6-1.5
			c0-0.6,0.2-1.1,0.6-1.5v0c0.4-0.4,0.9-0.6,1.5-0.6c0.5,0,1.1,0.2,1.5,0.6l2.7,2.7c0.1,0.1,0.2,0.2,0.4,0.2c0.1,0,0.3-0.1,0.4-0.2
			l7.3-7.3c0.4-0.4,0.9-0.6,1.5-0.6c0.5,0,1.1,0.2,1.5,0.6l0,0C26.3,11.7,26.3,13,25.5,13.8z"/>
	</g>
</g>
<g>
</g>
<g>
</g>
<g>
</g>
<g>
</g>
<g>
</g>
<g>
</g>
</svg>
