<?xml version="1.0" encoding="utf-8"?>
<!-- Generator: Adobe Illustrator 17.0.0, SVG Export Plug-In . SVG Version: 6.00 Build 0)  -->
<!DOCTYPE svg PUBLIC "-//W3C//DTD SVG 1.1//EN" "http://www.w3.org/Graphics/SVG/1.1/DTD/svg11.dtd">
<svg version="1.1" id="Layer_1" xmlns="http://www.w3.org/2000/svg" xmlns:xlink="http://www.w3.org/1999/xlink" x="0px" y="0px"
	 width="26.7px" height="26.7px" viewBox="0 0 26.7 26.7" style="enable-background:new 0 0 26.7 26.7;" xml:space="preserve">
<style type="text/css">
	.st0{fill:#99CB66;}
</style>
<path class="st0" d="M25.8,5.3l-8.1,8.1l8.1,8.1c1.2,1.2,1.2,3.1,0,4.4c-0.6,0.6-1.4,0.9-2.2,0.9c-0.8,0-1.6-0.3-2.2-0.9l-8.1-8.1
	l-8.1,8.1c-0.6,0.6-1.4,0.9-2.2,0.9c-0.8,0-1.6-0.3-2.2-0.9c-1.2-1.2-1.2-3.1,0-4.4L9,13.3L0.9,5.3c-1.2-1.2-1.2-3.1,0-4.4
	c1.2-1.2,3.1-1.2,4.4,0L13.3,9l8.1-8.1c1.2-1.2,3.1-1.2,4.4,0C27,2.1,27,4.1,25.8,5.3z"/>
<g>
</g>
<g>
</g>
<g>
</g>
<g>
</g>
<g>
</g>
<g>
</g>
</svg>
