<?xml version="1.0" encoding="utf-8"?>
<!-- Generator: Adobe Illustrator 17.0.0, SVG Export Plug-In . SVG Version: 6.00 Build 0)  -->
<!DOCTYPE svg PUBLIC "-//W3C//DTD SVG 1.1//EN" "http://www.w3.org/Graphics/SVG/1.1/DTD/svg11.dtd">
<svg version="1.1" id="Layer_1" xmlns="http://www.w3.org/2000/svg" xmlns:xlink="http://www.w3.org/1999/xlink" x="0px" y="0px"
	 width="47.4px" height="42px" viewBox="0 0 47.4 42" enable-background="new 0 0 47.4 42" xml:space="preserve">
<g>
	<g>
		<path fill="#FFFFFF" d="M38.8,0H8.7C3.9,0,0,3.9,0,8.7v17.6c0,4.8,3.9,8.6,8.7,8.6h19.1l4,5.8c0.5,0.8,1.4,1.3,2.4,1.3
			c1,0,1.8-0.5,2.4-1.2l4.3-6.1c3.7-1,6.5-4.3,6.5-8.4V8.7C47.4,3.9,43.5,0,38.8,0z M16,20.3c-1.6,0-2.8-1.3-2.8-2.8
			c0-1.6,1.3-2.8,2.8-2.8c1.6,0,2.8,1.3,2.8,2.8C18.8,19,17.5,20.3,16,20.3z M23.7,20.3c-1.6,0-2.8-1.3-2.8-2.8
			c0-1.6,1.3-2.8,2.8-2.8c1.6,0,2.8,1.3,2.8,2.8C26.5,19,25.3,20.3,23.7,20.3z M31.4,20.3c-1.6,0-2.8-1.3-2.8-2.8
			c0-1.6,1.3-2.8,2.8-2.8c1.6,0,2.8,1.3,2.8,2.8C34.3,19,33,20.3,31.4,20.3z"/>
	</g>
</g>
<g>
</g>
<g>
</g>
<g>
</g>
<g>
</g>
<g>
</g>
<g>
</g>
</svg>
