<?xml version="1.0" encoding="utf-8"?>
<!-- Generator: Adobe Illustrator 17.0.0, SVG Export Plug-In . SVG Version: 6.00 Build 0)  -->
<!DOCTYPE svg PUBLIC "-//W3C//DTD SVG 1.1//EN" "http://www.w3.org/Graphics/SVG/1.1/DTD/svg11.dtd">
<svg version="1.1" id="Layer_1" xmlns="http://www.w3.org/2000/svg" xmlns:xlink="http://www.w3.org/1999/xlink" x="0px" y="0px"
	 width="63.2px" height="49.4px" viewBox="0 0 63.2 49.4" enable-background="new 0 0 63.2 49.4" xml:space="preserve">
<g id="g22640" transform="matrix(3.2711357,0,0,3.2711357,2759.3662,-9913.767)">
	<path id="path22642" fill="#FFFFFF" d="M-826.6,3037.3c0,0.3,0.3,0.6,0.6,0.6h1.2
		c0.3,0,0.6-0.3,0.6-0.6c0-0.3-0.3-0.6-0.6-0.6h-1.2C-826.4,3036.7-826.6,3037-826.6,3037.3z"/>
	<path id="path22644" fill="#FFFFFF" d="M-826.9,3038.7c-0.1-0.3-0.2-0.5-0.4-0.8
		c0-0.2,0-0.4,0-0.6c0-2-1.6-3.6-3.6-3.6c-0.9,0-1.8,0.3-2.4,0.9c-0.9-0.6-1.9-0.9-3-0.9c-3,0-5.4,2.4-5.4,5.3
		c-1.1,0.6-1.8,1.8-1.8,3.1c0,2,1.6,3.6,3.6,3.6h12.1c2,0,3.6-1.6,3.6-3.6C-824.2,3040.5-825.4,3039.1-826.9,3038.7z M-830.9,3034.9
		c1.1,0,2,0.7,2.3,1.8c-0.6-0.4-1.3-0.6-2-0.6c-0.4,0-0.8,0.1-1.1,0.2c-0.2-0.3-0.4-0.6-0.7-0.9
		C-831.9,3035.1-831.4,3034.9-830.9,3034.9z M-827.9,3044.6h-12.1c-1.3,0-2.4-1.1-2.4-2.4c0-1.1,0.8-2.1,1.9-2.4
		c0-0.2-0.1-0.4-0.1-0.7c0-2.3,1.9-4.2,4.2-4.2c1.9,0,3.5,1.3,4,3c0.5-0.4,1-0.6,1.7-0.6c1.4,0,2.6,1.1,2.7,2.4h0
		c1.3,0,2.4,1.1,2.4,2.4C-825.4,3043.5-826.5,3044.6-827.9,3044.6z"/>
	<path id="path22646" fill="#FFFFFF" d="M-827,3034.3l0.8-0.8c0.2-0.2,0.2-0.6,0-0.9
		c-0.2-0.2-0.6-0.2-0.9,0l-0.8,0.8c-0.2,0.2-0.2,0.6,0,0.9C-827.6,3034.6-827.3,3034.6-827,3034.3z"/>
	<path id="path22648" fill="#FFFFFF" d="M-830.9,3033.1c0.3,0,0.6-0.3,0.6-0.6v-1.2
		c0-0.3-0.3-0.6-0.6-0.6c-0.3,0-0.6,0.3-0.6,0.6v1.2C-831.5,3032.8-831.2,3033.1-830.9,3033.1z"/>
</g>
<g>
</g>
<g>
</g>
<g>
</g>
<g>
</g>
<g>
</g>
<g>
</g>
</svg>
