<?xml version="1.0" encoding="utf-8"?>
<!-- Generator: Adobe Illustrator 17.0.0, SVG Export Plug-In . SVG Version: 6.00 Build 0)  -->
<!DOCTYPE svg PUBLIC "-//W3C//DTD SVG 1.1//EN" "http://www.w3.org/Graphics/SVG/1.1/DTD/svg11.dtd">
<svg version="1.1" id="Layer_1" xmlns="http://www.w3.org/2000/svg" xmlns:xlink="http://www.w3.org/1999/xlink" x="0px" y="0px"
	 width="46.6px" height="49.4px" viewBox="0 0 46.6 49.4" enable-background="new 0 0 46.6 49.4" xml:space="preserve">
<g>
	<path fill="#FFFFFF" d="M42.4,19C41.9,12.8,38.2,7.1,33,3.7c-2.8-1.9-6.1-3-9.4-3.5C14.4-1,4.7,3.1,1.2,12.1
		c-3,7.8,0,15.5,5.3,21.4c1.9,2.1,2.2,6.1,2.2,8.8v5.5c0,0.8,0.7,1.5,1.5,1.5H30c0.8,0,1.5-0.6,1.5-1.4c0.1-1.1,0.2-2,0.2-2
		c0.4-1.8,1.9-3.2,5.1-2.7c3.4,0.5,5.5-0.5,5.7-2.7c0.1-0.7,0.1-7.1,0.1-7.1c0.2-0.1,1.2-0.3,2.8-0.7c1.2-0.3,1.6-1.8,0.7-2.6
		c-3.5-3.5-4-5.1-4.1-5.4C41.7,23,42.5,20.8,42.4,19z M35.9,16.9c-0.5,0.6-1,0.7-1.3,0.8c-0.1,0-0.2,0.1-0.1,0.2
		c0.2,0.5,0.3,2-2.3,2.6c-2.5,0.5-3.9,2.4-4.9,3.4c-0.7,0.7-1.8,1.1-2.8,1.3c-1,0.2-2,0.4-2.9,1.2c-0.9,0.8-2.1,5-2.3,5.7
		c0,0.1-0.1,0.1-0.1,0.1h-1.3c-0.1,0-0.1,0-0.1-0.1l-0.6-2.9c0-0.1-5.9,0.4-6.4-2.3c0-0.1-0.1-0.2-0.2-0.1C10,27,8.1,27.5,7.1,26
		c-0.7-1.1-0.5-2.1-0.4-2.4c0-0.1,0-0.1-0.1-0.2c-0.5-0.2-2.3-1.2-2.1-4.6c0.2-2.7,2-3.9,1.8-4.3c-0.7-1.2-0.1-3.2,1.4-3.6
		c0.1,0,0.1-0.1,0.1-0.1L7.9,10c0.2-2.5,3.5-4.1,5.7-3c0.1,0,0.2,0,0.2-0.1c0.3-0.9,0.8-1.1,1-1.2c0.7-0.4,1.6-0.3,2.3,0
		c0.1,0,0.1,0,0.2,0c0.2-0.2,1-0.9,2.4-0.9c1.4,0,2.1,0.7,2.4,0.9c0,0,0.1,0,0.2,0c0.3-0.2,1.5-0.7,2.6-0.3c0.9,0.3,1.4,1.1,1.5,1.4
		c0,0.1,0.1,0.1,0.2,0.1c0.4-0.1,1.8-0.4,3.1,0.2c1.3,0.6,1.7,1.4,1.8,1.7c0,0.1,0.1,0.1,0.1,0.1c0.3,0,1,0.1,1.5,0.5
		c0.8,0.7,0.7,1.2,0.7,1.5c0,0.1,0,0.2,0.1,0.2c0.4,0.2,1.4,0.8,2.1,2.1C36.7,14.8,36.3,16.3,35.9,16.9z"/>
</g>
<g>
</g>
<g>
</g>
<g>
</g>
<g>
</g>
<g>
</g>
<g>
</g>
</svg>
